<svg width="30" height="30" viewBox="0 0 30 30" fill="none" xmlns="http://www.w3.org/2000/svg">
<g clip-path="url(#clip0_1303_158)">
<mask id="mask0_1303_158" style="mask-type:luminance" maskUnits="userSpaceOnUse" x="0" y="0" width="30" height="30">
<path d="M30 0H0V30H30V0Z" fill="white"/>
</mask>
<g mask="url(#mask0_1303_158)">
<path d="M10.4252 14.0627C10.5252 12.1377 10.8752 10.2502 11.5502 8.73774C11.6127 8.60024 11.6752 8.50024 11.7377 8.37524C11.0252 8.72524 10.3502 9.18774 9.7752 9.77524C8.5752 10.9752 7.9127 12.5002 7.7002 14.0627H10.4252Z" fill="white"/>
<path d="M12.3132 15.9375C12.4007 17.625 12.7007 19.2625 13.2632 20.525C13.7757 21.675 14.4382 22.3875 15.0007 22.4H15.0382C15.6007 22.375 16.2632 21.675 16.7632 20.525C17.3257 19.2625 17.6257 17.625 17.7132 15.9375H12.3132Z" fill="white"/>
<path d="M15.0132 7.6123C14.4507 7.6123 13.7757 8.3373 13.2632 9.4873C12.7132 10.7498 12.4007 12.3748 12.3132 14.0623H17.7132C17.6257 12.3748 17.3132 10.7498 16.7632 9.4873C16.2507 8.3248 15.5882 7.6123 15.0132 7.6123Z" fill="white"/>
<path d="M18.4758 8.73745C19.1508 10.25 19.5133 12.1375 19.6008 14.0625H22.3258C22.1258 12.4375 21.4008 10.95 20.2258 9.77495C19.6508 9.19995 19.0008 8.73745 18.3008 8.38745C18.3633 8.49995 18.4133 8.59995 18.4758 8.72495V8.73745Z" fill="white"/>
<path d="M21.2628 2.5H8.73779C5.28779 2.5 2.48779 5.3 2.48779 8.75V21.25C2.48779 24.7 5.28779 27.5 8.73779 27.5H21.2503C24.7003 27.5 27.5003 24.7125 27.5003 21.2625V8.75C27.5003 5.3 24.7003 2.5 21.2503 2.5H21.2628ZM24.2753 15C24.2753 17.475 23.3128 19.8125 21.5628 21.5625C19.8378 23.2875 17.5878 24.175 15.3128 24.25C15.2128 24.25 15.1128 24.275 15.0128 24.275C14.9378 24.275 14.8503 24.275 14.7753 24.2625C12.4753 24.2 10.2003 23.3125 8.45029 21.5625C6.65029 19.7625 5.75029 17.4 5.73779 15.025V15C5.73779 14.9875 5.73779 14.975 5.73779 14.9625C5.73779 12.6 6.65029 10.25 8.43779 8.45C10.1878 6.7 12.5128 5.7375 15.0003 5.7375H15.0128C15.0128 5.7375 15.0378 5.7375 15.0503 5.7375C17.5128 5.75 19.8128 6.7125 21.5503 8.45C23.3003 10.2 24.2628 12.525 24.2628 15H24.2753Z" fill="white"/>
<path d="M11.5502 21.275C10.8752 19.7625 10.5127 17.875 10.4252 15.9375H7.7002C7.9002 17.5125 8.5627 19.0375 9.77519 20.2375C10.3502 20.8125 11.0127 21.25 11.7127 21.5875C11.6627 21.475 11.6002 21.3875 11.5502 21.275Z" fill="white"/>
<path d="M19.6003 15.9375C19.5128 17.875 19.1378 19.7625 18.4753 21.275C18.4253 21.3875 18.3753 21.4625 18.3253 21.575C19.0128 21.225 19.6628 20.8125 20.2253 20.2375C21.4003 19.0625 22.1253 17.5625 22.3253 15.9375H19.6003Z" fill="white"/>
</g>
</g>
<defs>
<clipPath id="clip0_1303_158">
<rect width="30" height="30" fill="white"/>
</clipPath>
</defs>
</svg>
