<svg width="110" height="40" viewBox="0 0 110 40" fill="none" xmlns="http://www.w3.org/2000/svg">
<rect y="12.2715" width="110" height="27.6382" rx="13.8191" fill="#0AB76D"/>
<path d="M87.0938 25.8475C87.0938 20.5812 88.8902 16.7422 94.0089 16.7422C99.1275 16.7422 100.924 20.5812 100.924 25.8475C100.924 31.1631 99.1275 35.0021 94.0089 35.0021C88.8902 35.0021 87.0938 31.1631 87.0938 25.8475ZM96.7897 25.8475C96.7897 23.0913 96.4944 20.6796 94.0089 20.6796C91.5234 20.6796 91.2281 23.0913 91.2281 25.8475C91.2281 28.7022 91.5234 31.0646 94.0089 31.0646C96.4944 31.0646 96.7897 28.7022 96.7897 25.8475Z" fill="#FBFBFA"/>
<path d="M72.893 34.83V31.7046C76.7074 28.5547 80.7678 25.4294 80.7678 22.4024C80.7678 21.0982 80.1772 20.2615 78.8976 20.2615C77.6425 20.2615 76.9042 21.2458 76.9042 22.9438H72.8438C72.9668 18.5881 75.7968 16.7178 79.0698 16.7178C83.1549 16.7178 84.976 19.1048 84.976 22.1318C84.976 26.0692 81.4569 29.2191 78.6022 31.4093H85.2467V34.83H72.893Z" fill="#FBFBFA"/>
<path d="M56.9844 25.8475C56.9844 20.5812 58.7808 16.7422 63.8995 16.7422C69.0182 16.7422 70.8146 20.5812 70.8146 25.8475C70.8146 31.1631 69.0182 35.0021 63.8995 35.0021C58.7808 35.0021 56.9844 31.1631 56.9844 25.8475ZM66.6803 25.8475C66.6803 23.0913 66.385 20.6796 63.8995 20.6796C61.414 20.6796 61.1187 23.0913 61.1187 25.8475C61.1187 28.7022 61.414 31.0646 63.8995 31.0646C66.385 31.0646 66.6803 28.7022 66.6803 25.8475Z" fill="#FBFBFA"/>
<path d="M42.2332 22.1812C42.3809 18.6375 44.6941 16.6934 48.3608 16.6934C52.1506 16.6934 54.1932 18.859 54.1932 21.5659C54.1932 23.9284 52.7166 25.1835 51.4862 25.6018V25.7002C53.2826 26.2909 54.5131 27.669 54.5131 30.0314C54.5131 33.0583 52.3475 35.2239 48.5823 35.2239C44.8417 35.2239 42.1348 33.4521 42.0117 29.3916H46.0968C46.1214 30.7943 46.8843 31.7295 48.4347 31.7295C49.7389 31.7295 50.4526 30.8927 50.4526 29.7115C50.4526 28.1119 49.4928 27.4721 47.3026 27.4721H46.5152V24.0514H47.3026C48.73 24.0514 50.1081 23.7069 50.1081 22.0827C50.1081 20.8769 49.3944 20.2124 48.2624 20.2124C46.9089 20.2124 46.4167 21.1968 46.3429 22.1812H42.2332Z" fill="#FBFBFA"/>
<path d="M14.9244 37.6985C21.3361 37.6985 26.5325 32.5021 26.5325 26.0905C26.5325 19.6788 21.3361 14.4824 14.9244 14.4824C8.51282 14.4824 3.31641 19.6788 3.31641 26.0905C3.31641 32.5021 8.51282 37.6985 14.9244 37.6985ZM11.6597 20.3182C12.1041 20.1958 12.5711 20.427 12.7479 20.8532L13.6684 23.0615C13.8226 23.4379 13.7183 23.8686 13.4009 24.1271L12.3988 24.9433C13.1334 26.5666 14.4166 27.8906 16.0082 28.6796L16.8833 27.6095C17.1418 27.2966 17.5725 27.1878 17.9489 27.342L20.1571 28.2625C20.5834 28.4393 20.8101 28.9063 20.6922 29.3507L20.6559 29.4777C20.2569 30.9423 18.8376 32.1938 17.11 31.8265C13.1424 30.9876 10.0228 27.8634 9.17937 23.8958C8.81209 22.1682 10.0636 20.749 11.5282 20.3499L11.6552 20.3137L11.6597 20.3182Z" fill="white"/>
<path d="M90.4414 1.60247V0.0878906H96.4444V1.60247H94.3881V7.84871H92.4977V1.60247H90.4414Z" fill="#0AB76D"/>
<path d="M87.6016 7.84871V0.0878906H89.492V7.84871H87.6016Z" fill="#0AB76D"/>
<path d="M79.7734 4.72006V0.0878906H81.6639V4.73111C81.6639 5.6487 82.1172 6.17936 83.0126 6.17936C83.9081 6.17936 84.3835 5.6487 84.3835 4.73111V0.0878906H86.2739V4.72006C86.2739 6.86478 84.7704 7.92609 82.9795 7.92609C81.1775 7.92609 79.7734 6.86478 79.7734 4.72006Z" fill="#0AB76D"/>
<path d="M72.8555 1.60247V0.0878906H78.8585V1.60247H76.8022V7.84871H74.9117V1.60247H72.8555Z" fill="#0AB76D"/>
<path d="M70.4212 7.84871L69.9569 6.47785H67.0604L66.5961 7.84871H64.6172L67.4252 0.0878906H69.6142L72.4222 7.84871H70.4212ZM69.4705 5.01855L68.5086 2.17734L67.5579 5.01855H69.4705Z" fill="#0AB76D"/>
<path d="M62.0156 2.6085C62.0156 2.03362 61.6839 1.65774 60.9764 1.65774H59.8045V3.58136H60.9764C61.6839 3.58136 62.0156 3.21654 62.0156 2.6085ZM57.9141 0.0878906H61.0869C62.9884 0.0878906 63.9392 1.18236 63.9392 2.53111C63.9392 3.50398 63.4085 4.42156 62.2146 4.77533L64.0055 7.84871H61.8719L60.2578 4.91905H59.8045V7.84871H57.9141V0.0878906Z" fill="#0AB76D"/>
<path d="M53.1186 0C54.9759 0 56.3246 0.950755 56.7337 2.54272H54.6442C54.3568 2.02312 53.8261 1.74674 53.1186 1.74674C51.9025 1.74674 51.0955 2.60905 51.0955 3.95779C51.0955 5.39498 51.9136 6.23518 53.2734 6.23518C54.2131 6.23518 54.8653 5.7377 55.1528 4.86433H52.7538V3.47136H56.8663V5.22915C56.4684 6.56684 55.1749 7.90453 53.1297 7.90453C50.8081 7.90453 49.1719 6.27941 49.1719 3.95779C49.1719 1.63618 50.797 0 53.1186 0Z" fill="#0AB76D"/>
<path d="M41.8789 0.0878906H43.7694V6.38941H46.2457V7.84871H41.8789V0.0878906Z" fill="#0AB76D"/>
<path d="M40.6522 0.0878906V1.60247H37.7889V3.17232H40.3205V4.63162H37.7889V6.33413H40.6522V7.84871H35.8984V0.0878906H40.6522Z" fill="#0AB76D"/>
<path d="M30.8905 3.55925H31.9186C32.6704 3.55925 32.991 3.18337 32.991 2.58639C32.991 1.9894 32.6704 1.61352 31.9186 1.61352H30.8905V3.55925ZM34.9146 2.58639C34.9146 3.8688 34.0412 5.06277 32.0623 5.06277H30.8905V7.84871H29V0.0878906H32.0623C33.9638 0.0878906 34.9146 1.16025 34.9146 2.58639Z" fill="#0AB76D"/>
<path d="M23.992 3.55925H25.0202C25.7719 3.55925 26.0925 3.18337 26.0925 2.58639C26.0925 1.9894 25.7719 1.61352 25.0202 1.61352H23.992V3.55925ZM28.0161 2.58639C28.0161 3.8688 27.1428 5.06277 25.1639 5.06277H23.992V7.84871H22.1016V0.0878906H25.1639C27.0654 0.0878906 28.0161 1.16025 28.0161 2.58639Z" fill="#0AB76D"/>
<path d="M19.2454 7.84871L18.7811 6.47785H15.8846L15.4203 7.84871H13.4414L16.2494 0.0878906H18.4384L21.2464 7.84871H19.2454ZM18.2947 5.01855L17.3329 2.17734L16.3821 5.01855H18.2947Z" fill="#0AB76D"/>
</svg>
