<svg width="49" height="25" viewBox="0 0 49 25" fill="none" xmlns="http://www.w3.org/2000/svg">
<path d="M0 5C0 2.23858 2.23858 0 5 0H44C46.7614 0 49 2.23858 49 5V20C49 22.7614 46.7614 25 44 25H5C2.23858 25 0 22.7614 0 20V5Z" fill="white"/>
<path d="M44 24.2998V25H5V24.2998H44ZM48.2998 20V5C48.2998 2.62518 46.3748 0.700195 44 0.700195H5C2.62518 0.700195 0.700195 2.62518 0.700195 5V20C0.700195 22.3748 2.62518 24.2998 5 24.2998V25C2.32472 25 0.140529 22.8989 0.00683594 20.2568L0 20V5C0 2.32472 2.10111 0.140528 4.74316 0.00683594L5 0H44L44.2568 0.00683594C46.8989 0.140529 49 2.32472 49 5V20C49 22.7614 46.7614 25 44 25V24.2998C46.3748 24.2998 48.2998 22.3748 48.2998 20Z" fill="#D9D9D9"/>
<path d="M44.2441 9.16362V8.75223C44.2441 6.82217 43.1141 5.01232 40.4441 5.01232H36.3809L33.0898 20H39.3675C40.3971 19.9972 41.3838 19.5869 42.1118 18.8588C42.8399 18.1308 43.2502 17.1441 43.253 16.1145V15.659C43.2522 15.0527 43.1094 14.4549 42.8362 13.9136C42.563 13.3722 42.1669 12.9024 41.6796 12.5416C42.4171 12.3355 43.0669 11.8938 43.5299 11.2839C43.993 10.674 44.2438 9.92936 44.2441 9.16362ZM40.7806 15.8327C40.599 18.0245 38.1093 18.313 35.8867 18.0619L36.8684 13.6021H38.3377C39.1444 13.6034 40.961 13.6796 40.782 15.8327H40.7806ZM42.131 9.28783C41.9494 11.4797 39.4597 11.7682 37.2371 11.5171L38.2188 7.05457H39.6881C40.4948 7.05457 42.306 7.1267 42.131 9.28516V9.28783ZM32.442 7.05725C32.3236 7.04923 32.2033 7.04523 32.0814 7.04523C29.9069 7.04523 28.2226 8.10041 28.2226 9.68987C28.2226 11.0843 29.5796 12.2704 31.3801 12.5335L31.0569 14.3474C27.5227 14.0883 26 11.8951 26 9.6832C26 7.19616 28.5044 5.00831 31.905 5.00831C32.1375 5.00831 32.6196 4.98961 32.84 5.00831L32.442 7.05725Z" fill="#1F4394"/>
<path d="M32.4086 7.05053L32.8454 5.00961H35.1214L34.6846 7.05454L32.4086 7.05053ZM33.5346 12.5335L31.885 20H29.609L31.2706 12.5335H33.5346Z" fill="#FEB836"/>
<path d="M20.0343 17.3776V17.9805L18.6808 18.3931L18.6818 17.7899L20.0343 17.3776Z" fill="#22297C"/>
<path d="M15.3115 16.2283V17.6323C15.3115 17.7794 15.1738 17.9838 14.9158 18.0522L13.2974 18.5458L12.9465 18.6531L12.6345 18.7481L11.5636 19.074L11.3403 19.1425L10.4612 19.4102L9.95739 19.5645L9.88702 19.586L8.44803 20.0243C8.11862 20.0785 7.79635 19.964 7.74536 19.7178V18.5356L9.88702 17.8826V18.7982C9.92272 18.9433 10.4286 18.9044 10.4479 18.6704L10.4571 17.0856L10.4612 16.2702L12.6345 15.6082L12.6385 16.7485L12.6436 17.8981C12.6538 18.089 13.1821 17.9716 13.1801 17.7417L13.176 16.8792L13.2974 16.8425L15.3115 16.2283Z" fill="#22297C"/>
<path d="M17.9691 14.1743C15.9162 15.5149 14.1407 16.3344 12.6384 16.7482L12.6344 15.6079L10.4611 16.2699L10.457 17.0853C5.79532 17.1437 5.16506 12.1358 8.349 8.81799C6.21652 13.7646 13.4839 12.9563 16.6087 13.4171C17.4327 13.5387 17.9691 13.7482 17.9691 14.1743Z" fill="#FECC0B"/>
<path d="M12.9466 19.3282V19.9884L12.6345 20.0834L11.5637 20.4103V19.7503L12.6345 19.4233L12.9466 19.3282Z" fill="#22297C"/>
<path d="M11.3403 19.8837V20.5438L10.4612 20.8125L9.9574 20.9658V20.3057L10.4612 20.1525L11.3403 19.8837Z" fill="#22297C"/>
<path d="M20.6463 14.6015V15.822C20.6463 16.052 20.4423 16.3415 19.9786 16.5089L18.6066 16.9271L18.0967 17.0825V18.9195C18.0839 19.2772 17.8035 19.456 17.5742 19.546L16.0122 20.0224L15.3115 20.2359C15.3115 20.2359 13.7668 20.7081 13.753 20.7111C13.4373 20.7802 13.3141 20.6246 13.2974 20.4779V19.2213L15.3116 18.6082V19.3453C15.3116 19.5668 16.0062 19.5135 16.0123 19.207V16.0149L18.0631 15.3896V16.1989C18.1903 16.4395 18.679 16.3715 18.6832 16.0435V15.2005L20.0345 14.7887L20.6463 14.6015Z" fill="#22297C"/>
<path d="M18.1222 13.978C21.1817 11.6279 23.1194 7.16563 4.99994 5.49702C20.8421 -1.65562 26.3492 8.25589 18.1222 13.978Z" fill="#22297C"/>
<path d="M6.94812 22.9807L7.2862 21.9894H7.45049L7.78857 22.9807H7.64783L7.55686 22.7037H7.17371L7.08274 22.9807H6.94812ZM7.51994 22.5912L7.36503 22.1238L7.21083 22.5912H7.51994Z" fill="#22297C"/>
<path d="M8.78213 22.9807H8.20093V21.9894H8.33432V22.8636H8.78224V22.9807H8.78213Z" fill="#22297C"/>
<path d="M9.52237 23C9.45149 23 9.38653 22.9892 9.32778 22.968C9.26894 22.9467 9.21846 22.9143 9.17623 22.8708C9.13401 22.8269 9.10168 22.7725 9.07925 22.7076C9.05681 22.6428 9.04559 22.5684 9.04559 22.484C9.04559 22.4041 9.05691 22.3326 9.07955 22.2693C9.10219 22.206 9.13463 22.1521 9.17685 22.1071C9.21764 22.0636 9.26802 22.0301 9.32768 22.0067C9.38734 21.9832 9.45271 21.9713 9.52359 21.9713C9.55735 21.9713 9.58958 21.9738 9.62058 21.9786C9.65158 21.9836 9.68116 21.9901 9.70951 21.9986C9.73194 22.0052 9.75703 22.0144 9.78457 22.0263C9.81221 22.038 9.83454 22.0482 9.85157 22.0565V22.2157H9.84015C9.82353 22.201 9.80639 22.1872 9.78865 22.1741C9.7709 22.1611 9.74592 22.1469 9.71359 22.1318C9.68666 22.1186 9.65566 22.1074 9.62058 22.0986C9.5856 22.0896 9.54786 22.0852 9.50748 22.0852C9.4109 22.0852 9.33298 22.1212 9.27343 22.1931C9.21387 22.2651 9.18419 22.3607 9.18419 22.4801C9.18419 22.5467 9.19204 22.6048 9.20775 22.6545C9.22345 22.7043 9.24609 22.7465 9.27577 22.781C9.30453 22.8152 9.3392 22.8413 9.3799 22.8593C9.42059 22.8772 9.46617 22.8862 9.51696 22.8862C9.5547 22.8862 9.59212 22.8837 9.62945 22.8783C9.66667 22.873 9.69809 22.865 9.72368 22.8544V22.5981H9.49208V22.4821H9.85575V22.915C9.83872 22.9224 9.81588 22.932 9.78742 22.9435C9.75887 22.955 9.73225 22.9641 9.70757 22.9708C9.67473 22.9807 9.64516 22.9879 9.61864 22.9928C9.59212 22.9977 9.5601 23 9.52237 23Z" fill="#22297C"/>
<path d="M10.5052 22.1065V22.3781H10.9653V22.4952H10.5052V22.8634H10.9989V22.9805H10.3719V21.9894H10.5671L10.6683 21.7737L10.7507 21.8251L10.6666 21.9894H10.9989V22.1065H10.5052Z" fill="#22297C"/>
<path d="M12.0666 22.9807H11.8936L11.5757 22.5866H11.4234V22.9807H11.29V21.9894H11.5487C11.6061 21.9894 11.6543 21.9924 11.6932 21.9987C11.732 22.0049 11.769 22.0193 11.8039 22.0419C11.8389 22.0642 11.8667 22.0928 11.8871 22.1279C11.9074 22.1629 11.9177 22.2064 11.9177 22.2584C11.9177 22.3311 11.8991 22.392 11.8619 22.4407C11.8246 22.4895 11.7739 22.5258 11.7096 22.5493L12.0666 22.9807ZM11.7783 22.2683C11.7783 22.2394 11.7731 22.2138 11.7628 22.1913C11.7524 22.1689 11.7365 22.1507 11.715 22.1364C11.6961 22.1241 11.6741 22.1153 11.649 22.1101C11.6238 22.1051 11.5926 22.1025 11.5554 22.1025H11.4234V22.4767H11.5406C11.5788 22.4767 11.6131 22.4733 11.6436 22.4666C11.6741 22.4599 11.7002 22.4462 11.7217 22.4254C11.741 22.4066 11.7553 22.3845 11.7645 22.3588C11.7737 22.333 11.7783 22.3029 11.7783 22.2683Z" fill="#22297C"/>
<path d="M12.4814 22.9807H12.3486V22.8795V22.0906L12.3491 21.9894H12.483L12.482 22.0906V22.8795L12.4814 22.9807Z" fill="#22297C"/>
<path d="M12.9492 22.9807V21.9894H13.5762V22.1065H13.0825V22.3781H13.5426V22.4952H13.0825V22.8635H13.5762V22.9806H12.9492V22.9807Z" fill="#22297C"/>
<path d="M15.3855 22.2333C15.3855 22.2828 15.376 22.3299 15.357 22.3747C15.3379 22.4193 15.3105 22.4566 15.2747 22.4867C15.2527 22.5051 15.2286 22.5222 15.2024 22.5379C15.1761 22.5536 15.1471 22.5669 15.1153 22.5779C15.0834 22.5888 15.049 22.5974 15.0117 22.6036C14.9744 22.6099 14.9329 22.6128 14.8866 22.6128H14.7168V22.9602H14.3929V21.8982H14.8935C14.9679 21.8982 15.0321 21.9038 15.0862 21.915C15.1402 21.9261 15.1892 21.9438 15.2329 21.9682C15.2815 21.9948 15.319 22.0302 15.3455 22.0748C15.3722 22.1192 15.3855 22.172 15.3855 22.2333ZM15.053 22.2398C15.053 22.2098 15.0443 22.1841 15.0269 22.1624C15.0096 22.1408 14.9889 22.1261 14.9646 22.1178C14.934 22.1069 14.9047 22.1006 14.8768 22.0989C14.8488 22.0971 14.8108 22.0964 14.7629 22.0964H14.717V22.4145H14.7395C14.7701 22.4145 14.799 22.4142 14.8261 22.4137C14.8532 22.4133 14.8769 22.4115 14.8971 22.4087C14.9144 22.4063 14.9328 22.4017 14.9521 22.3948C14.9713 22.3878 14.9863 22.3801 14.9967 22.3715C15.0187 22.3539 15.0335 22.3356 15.0414 22.3166C15.049 22.2978 15.053 22.2721 15.053 22.2398Z" fill="#22297C"/>
<path d="M16.835 22.4295C16.835 22.6012 16.7792 22.7362 16.6677 22.8346C16.5562 22.9331 16.4035 22.9821 16.2096 22.9821C16.015 22.9821 15.8623 22.9324 15.7514 22.8328C15.6406 22.7331 15.5851 22.5987 15.5851 22.4295C15.5851 22.2588 15.6406 22.1239 15.7514 22.0248C15.8623 21.9256 16.015 21.8761 16.2096 21.8761C16.4035 21.8761 16.5562 21.9253 16.6677 22.024C16.7792 22.1228 16.835 22.2578 16.835 22.4295ZM16.5006 22.4287C16.5006 22.3655 16.4927 22.3116 16.4769 22.2672C16.461 22.2227 16.4398 22.1862 16.4132 22.1577C16.3855 22.1288 16.3542 22.108 16.3192 22.0954C16.2842 22.0828 16.248 22.0765 16.2106 22.0765C16.1707 22.0765 16.1346 22.0823 16.1022 22.0939C16.07 22.1056 16.0388 22.1263 16.0088 22.1563C15.9821 22.1839 15.9606 22.2205 15.9442 22.2661C15.9277 22.3117 15.9195 22.3662 15.9195 22.4295C15.9195 22.4946 15.9273 22.5487 15.9429 22.5918C15.9585 22.6348 15.9799 22.6708 16.0071 22.6998C16.0347 22.7293 16.0662 22.7503 16.1015 22.7629C16.1368 22.7755 16.173 22.7818 16.2106 22.7818C16.2487 22.7818 16.2856 22.7751 16.3214 22.7615C16.3573 22.748 16.3881 22.727 16.4141 22.6984C16.4418 22.6675 16.4631 22.6316 16.4781 22.5904C16.4931 22.5492 16.5006 22.4954 16.5006 22.4287Z" fill="#22297C"/>
<path d="M17.5268 22.9795C17.428 22.9795 17.3413 22.9717 17.2664 22.956C17.1918 22.9404 17.1222 22.9209 17.0582 22.8976V22.6451H17.0875C17.1523 22.6901 17.2236 22.7249 17.3015 22.7493C17.3795 22.7734 17.4551 22.7856 17.5284 22.7856C17.547 22.7856 17.5713 22.7839 17.6017 22.7806C17.632 22.7772 17.6563 22.772 17.6749 22.7648C17.6974 22.7569 17.7165 22.7455 17.7321 22.731C17.7477 22.7165 17.7554 22.6974 17.7554 22.6736C17.7554 22.6469 17.7428 22.6253 17.7173 22.6087C17.6919 22.592 17.6616 22.58 17.6264 22.5723C17.5824 22.5628 17.5356 22.5537 17.4856 22.5452C17.4356 22.5367 17.389 22.5261 17.3458 22.5138C17.2459 22.4848 17.1742 22.4458 17.1311 22.3968C17.0876 22.3478 17.066 22.2865 17.066 22.2128C17.066 22.1133 17.1171 22.0329 17.2193 21.9714C17.3215 21.9097 17.4492 21.879 17.6021 21.879C17.6789 21.879 17.7553 21.8855 17.8312 21.8982C17.9071 21.911 17.975 21.9285 18.0352 21.9504V22.1928H18.0066C17.9587 22.159 17.9001 22.1305 17.8312 22.1072C17.7622 22.0839 17.6914 22.0723 17.6186 22.0723C17.5903 22.0723 17.5649 22.074 17.5424 22.0773C17.5198 22.0805 17.4962 22.087 17.4713 22.0965C17.4512 22.104 17.4337 22.1155 17.4189 22.1304C17.4042 22.1453 17.3969 22.1622 17.3969 22.1807C17.3969 22.2077 17.4085 22.2292 17.4319 22.2451C17.4554 22.2611 17.5006 22.2755 17.5675 22.2883C17.6108 22.2964 17.6525 22.3042 17.6926 22.3118C17.7329 22.3193 17.7756 22.33 17.8213 22.3432C17.9108 22.3699 17.9772 22.4056 18.0209 22.4505C18.0645 22.4955 18.0864 22.5549 18.0864 22.6285C18.0864 22.7341 18.036 22.8189 17.9353 22.8831C17.8344 22.9473 17.6982 22.9795 17.5268 22.9795Z" fill="#22297C"/>
<path d="M18.6012 22.9601V22.1007H18.2202V21.8982H19.3062V22.1007H18.9252V22.9601H18.6012Z" fill="#22297C"/>
<path d="M19.5418 22.9601V21.8981H20.414V22.1007H19.864V22.2867H20.3706V22.4892H19.864V22.7574H20.414V22.9599H19.5418V22.9601Z" fill="#22297C"/>
</svg>
