<svg width="202" height="93" viewBox="0 0 202 93" fill="none" xmlns="http://www.w3.org/2000/svg">
<path d="M33.97 78.16C33.74 75.1 33.51 72.04 33.28 68.98C33.68 68.95 34.08 68.92 34.48 68.89C34.68 71.61 34.88 74.32 35.08 77.04C36.82 76.91 38.56 76.79 40.31 76.67C40.33 77.02 40.36 77.36 40.38 77.71C38.24 77.86 36.11 78.01 33.97 78.17V78.16Z" fill="#F5B531"/>
<path d="M40.9501 69.6C40.9201 69.13 40.8901 68.65 40.8601 68.18C41.2501 68.15 41.6401 68.13 42.0301 68.1C42.0601 68.57 42.0901 69.05 42.1201 69.52C41.7301 69.55 41.3401 69.57 40.9501 69.6ZM41.4801 77.63C41.3301 75.38 41.1801 73.13 41.0301 70.87C41.4201 70.84 41.8101 70.82 42.2001 70.79C42.3501 73.04 42.4901 75.29 42.6401 77.55C42.2501 77.58 41.8701 77.6 41.4801 77.63Z" fill="#F5B531"/>
<path d="M47.27 77.3901C46.8 77.4201 46.37 77.3501 45.97 77.1901C45.57 77.0301 45.21 76.7901 44.91 76.4901C44.61 76.1801 44.37 75.8301 44.19 75.4201C44.01 75.0201 43.91 74.5901 43.88 74.1401C43.85 73.6701 43.9 73.2101 44.03 72.7801C44.16 72.3501 44.36 71.9601 44.62 71.6201C44.89 71.2801 45.21 71.0001 45.59 70.7901C45.97 70.5801 46.4 70.4601 46.88 70.4301C47.46 70.3901 47.97 70.5001 48.41 70.7501C48.86 71.0001 49.24 71.3201 49.55 71.7301C49.52 71.2801 49.5 70.8301 49.47 70.3801C49.82 70.3601 50.16 70.3401 50.51 70.3201C50.63 72.5401 50.76 74.7601 50.88 76.9801C50.91 77.6201 50.79 78.1601 50.5 78.6201C50.21 79.0801 49.81 79.4301 49.29 79.6901C48.77 79.9501 48.19 80.1001 47.54 80.1401C46.77 80.1901 46.13 80.0901 45.62 79.8501C45.11 79.6101 44.68 79.2801 44.33 78.8401C44.54 78.6301 44.75 78.4201 44.97 78.2101C45.27 78.5901 45.64 78.8701 46.09 79.0401C46.54 79.2101 47.01 79.2801 47.5 79.2501C47.92 79.2201 48.3 79.1301 48.65 78.9601C49 78.7901 49.27 78.5501 49.47 78.2401C49.67 77.9301 49.75 77.5401 49.73 77.0801C49.71 76.6801 49.68 76.2901 49.66 75.8901C49.43 76.3201 49.1 76.6701 48.67 76.9401C48.24 77.2101 47.78 77.3601 47.29 77.3901H47.27ZM47.57 76.4401C47.82 76.4301 48.05 76.3701 48.28 76.2701C48.5 76.1701 48.71 76.0401 48.89 75.8901C49.08 75.7401 49.23 75.5601 49.35 75.3801C49.47 75.1901 49.55 75.0001 49.58 74.8101C49.54 74.1601 49.51 73.5101 49.47 72.8701C49.33 72.5701 49.14 72.3001 48.89 72.0801C48.65 71.8601 48.38 71.6901 48.07 71.5701C47.77 71.4501 47.46 71.4001 47.16 71.4201C46.81 71.4401 46.49 71.5301 46.22 71.7001C45.95 71.8601 45.73 72.0701 45.55 72.3301C45.37 72.5901 45.24 72.8701 45.15 73.1801C45.06 73.4901 45.03 73.8001 45.05 74.1101C45.07 74.4501 45.15 74.7601 45.29 75.0501C45.43 75.3401 45.62 75.5901 45.84 75.8201C46.07 76.0401 46.33 76.2101 46.63 76.3201C46.93 76.4301 47.24 76.4801 47.57 76.4601V76.4401Z" fill="#F5B531"/>
<path d="M52.5401 74.2601C52.4701 72.9201 52.3901 71.5701 52.3201 70.2301C52.7101 70.2101 53.1001 70.1901 53.4901 70.1701C53.5601 71.4401 53.6201 72.7101 53.6901 73.9801C53.7301 74.6701 53.8801 75.1701 54.1401 75.5101C54.4001 75.8401 54.7801 75.9901 55.2601 75.9701C55.5801 75.9501 55.8801 75.8701 56.1701 75.7201C56.4601 75.5701 56.7201 75.3701 56.9401 75.1101C57.1701 74.8501 57.3401 74.5501 57.4501 74.2001C57.3801 72.8001 57.3101 71.3901 57.2501 69.9901C57.6401 69.9701 58.0301 69.9501 58.4201 69.9301C58.5101 71.7401 58.5901 73.5501 58.6801 75.3601C58.6801 75.5001 58.7201 75.6001 58.7801 75.6601C58.8401 75.7201 58.9401 75.7501 59.0701 75.7601C59.0801 76.0501 59.1001 76.3501 59.1101 76.6401C58.9801 76.6601 58.8801 76.6801 58.8001 76.6901C58.7301 76.6901 58.6501 76.7001 58.5801 76.7101C58.3601 76.7201 58.1701 76.6601 58.0001 76.5401C57.8401 76.4101 57.7401 76.2501 57.7301 76.0601C57.7101 75.8001 57.6901 75.5401 57.6701 75.2801C57.4001 75.7901 57.0101 76.2001 56.5201 76.5001C56.0301 76.8001 55.4801 76.9701 54.8801 77.0001C54.1601 77.0401 53.6001 76.8301 53.2101 76.3701C52.8101 75.9101 52.5901 75.2201 52.5401 74.2901V74.2601Z" fill="#F5B531"/>
<path d="M63.7399 76.55C63.2199 76.57 62.7399 76.5 62.3099 76.33C61.8699 76.16 61.4899 75.93 61.1699 75.62C60.8399 75.31 60.5799 74.95 60.3899 74.54C60.1999 74.13 60.0899 73.69 60.0699 73.21C60.0399 72.58 60.1599 71.99 60.4399 71.45C60.7199 70.91 61.1199 70.47 61.6399 70.13C62.1599 69.79 62.7699 69.6 63.4599 69.58C64.1599 69.55 64.7799 69.69 65.3099 69.99C65.8399 70.29 66.2599 70.7 66.5699 71.2C66.8799 71.71 67.0399 72.26 67.0599 72.86C67.0599 72.95 67.0599 73.03 67.0599 73.11C67.0599 73.19 67.0599 73.25 67.0499 73.3C65.1399 73.37 63.2299 73.45 61.3099 73.53C61.3599 73.96 61.5099 74.34 61.7399 74.67C61.9699 75 62.2599 75.25 62.6099 75.43C62.9599 75.61 63.3399 75.69 63.7299 75.67C64.1499 75.65 64.5499 75.53 64.9099 75.31C65.2799 75.09 65.5199 74.8 65.6499 74.46C65.9899 74.54 66.3299 74.62 66.6699 74.69C66.5299 75.02 66.3199 75.33 66.0399 75.6C65.7499 75.87 65.4199 76.09 65.0199 76.25C64.6299 76.41 64.1899 76.5 63.7299 76.52L63.7399 76.55ZM61.2399 72.77C62.8099 72.7 64.3899 72.64 65.9599 72.57C65.9099 72.14 65.7599 71.76 65.5299 71.43C65.2999 71.11 64.9999 70.86 64.6499 70.68C64.2999 70.51 63.9099 70.43 63.4999 70.44C63.0899 70.46 62.7199 70.57 62.3799 70.77C62.0399 70.97 61.7699 71.25 61.5699 71.59C61.3699 71.93 61.2599 72.32 61.2399 72.76V72.77Z" fill="#F5B531"/>
<path d="M74.1801 66.8401C74.5201 66.8401 74.8601 66.8201 75.1901 66.8101C76.5701 69.8401 77.9301 72.8801 79.2801 75.9201C78.8601 75.9301 78.4301 75.9401 78.0101 75.9501C77.6401 75.0601 77.2601 74.1701 76.8901 73.2801C75.5401 73.3201 74.1901 73.3601 72.8401 73.4001C72.5201 74.3101 72.1901 75.2201 71.8701 76.1301C71.4501 76.1401 71.0201 76.1601 70.6001 76.1701C71.7801 73.0601 72.9701 69.9501 74.1701 66.8401H74.1801ZM76.5101 72.3801C75.9201 70.9801 75.3201 69.5801 74.7201 68.1701C74.2001 69.6001 73.6801 71.0401 73.1701 72.4701C74.2801 72.4401 75.4001 72.4001 76.5101 72.3701V72.3801Z" fill="#F5B531"/>
<path d="M80.1702 66.42C80.5602 66.42 80.9502 66.4 81.3402 66.39C81.4002 68.97 81.4502 71.56 81.5102 74.14C81.5102 74.51 81.5802 74.74 81.6802 74.83C81.7902 74.91 81.9202 74.96 82.0702 74.95C82.2602 74.95 82.4302 74.92 82.6002 74.88C82.7702 74.84 82.9102 74.79 83.0202 74.75C83.0902 75.06 83.1602 75.37 83.2202 75.68C83.0302 75.76 82.8002 75.83 82.5402 75.89C82.2802 75.95 82.0402 75.98 81.8402 75.98C81.3902 75.98 81.0302 75.87 80.7702 75.63C80.5002 75.38 80.3702 75.04 80.3602 74.58C80.3002 71.86 80.2402 69.14 80.1702 66.41V66.42Z" fill="#F5B531"/>
<path d="M86.8801 75.8901C86.4101 75.8901 85.9801 75.8101 85.5901 75.6301C85.2001 75.4501 84.8501 75.2001 84.5701 74.8801C84.2801 74.5601 84.0601 74.2001 83.8901 73.7801C83.7301 73.3701 83.6401 72.9401 83.6301 72.4901C83.6201 72.0101 83.6901 71.5601 83.8401 71.1401C83.9901 70.7101 84.2001 70.3301 84.4801 70.0101C84.7601 69.6801 85.1001 69.4201 85.4801 69.2301C85.8701 69.0401 86.3001 68.9401 86.7801 68.9301C87.3601 68.9301 87.8601 69.0501 88.3001 69.3201C88.7301 69.5901 89.1001 69.9301 89.4001 70.3501C89.4001 69.9001 89.3901 69.4501 89.3801 69.0001C89.7301 69.0001 90.0701 69.0001 90.4201 68.9901C90.4501 71.2101 90.4701 73.4301 90.5001 75.6601C90.5001 76.3001 90.3601 76.8401 90.0501 77.2801C89.7401 77.7201 89.3301 78.0601 88.8001 78.3001C88.2701 78.5401 87.6801 78.6601 87.0301 78.6701C86.2601 78.6801 85.6201 78.5601 85.1301 78.3001C84.6301 78.0401 84.2201 77.6801 83.8801 77.2301C84.1001 77.0301 84.3201 76.8301 84.5401 76.6301C84.8201 77.0201 85.1801 77.3101 85.6201 77.5101C86.0601 77.7001 86.5201 77.7901 87.0201 77.7901C87.4401 77.7901 87.8301 77.7001 88.1801 77.5501C88.5301 77.4001 88.8201 77.1701 89.0301 76.8601C89.2401 76.5501 89.3501 76.1701 89.3401 75.7201C89.3401 75.3201 89.3301 74.9201 89.3201 74.5301C89.0701 74.9501 88.7201 75.2801 88.2801 75.5301C87.8401 75.7801 87.3701 75.9101 86.8801 75.9101V75.8901ZM87.2301 74.9501C87.4801 74.9501 87.7101 74.9001 87.9401 74.8101C88.1701 74.7201 88.3801 74.6001 88.5701 74.4601C88.7601 74.3201 88.9201 74.1501 89.0501 73.9701C89.1801 73.7901 89.2701 73.6001 89.3101 73.4101C89.3101 72.7601 89.2901 72.1101 89.2901 71.4601C89.1601 71.1501 88.9801 70.8801 88.7501 70.6401C88.5201 70.4101 88.2501 70.2201 87.9601 70.0901C87.6701 69.9601 87.3601 69.9001 87.0501 69.9001C86.7001 69.9001 86.3801 69.9801 86.1001 70.1401C85.8201 70.2901 85.5901 70.4901 85.4001 70.7401C85.2101 70.9901 85.0601 71.2701 84.9601 71.5701C84.8601 71.8701 84.8101 72.1801 84.8201 72.4901C84.8201 72.8301 84.8901 73.1401 85.0201 73.4401C85.1501 73.7401 85.3201 74.0001 85.5401 74.2301C85.7601 74.4601 86.0101 74.6401 86.3001 74.7601C86.5901 74.8801 86.9001 74.9401 87.2301 74.9401V74.9501Z" fill="#F5B531"/>
<path d="M95.4301 75.8001C94.9101 75.8001 94.4401 75.7101 94.0101 75.5301C93.5801 75.3501 93.2101 75.1001 92.8901 74.7801C92.5701 74.4601 92.3301 74.0901 92.1501 73.6701C91.9701 73.2501 91.8801 72.8101 91.8801 72.3301C91.8801 71.7001 92.0201 71.1101 92.3101 70.5901C92.6101 70.0601 93.0201 69.6401 93.5601 69.3201C94.0901 69.0001 94.7101 68.8301 95.4001 68.8301C96.1001 68.8301 96.7101 68.9801 97.2301 69.3001C97.7501 69.6201 98.1501 70.0401 98.4401 70.5601C98.7301 71.0801 98.8701 71.6401 98.8801 72.2401C98.8801 72.3301 98.8801 72.4101 98.8801 72.4901C98.8801 72.5701 98.8701 72.6301 98.8601 72.6801C96.9501 72.6801 95.0301 72.6901 93.1201 72.7101C93.1601 73.1501 93.2901 73.5301 93.5101 73.8701C93.7301 74.2101 94.0101 74.4701 94.3601 74.6601C94.7101 74.8501 95.0801 74.9401 95.4701 74.9401C95.8901 74.9401 96.2901 74.8301 96.6701 74.6201C97.0401 74.4101 97.3001 74.1401 97.4401 73.8001C97.7801 73.8901 98.1101 73.9801 98.4501 74.0701C98.3001 74.4001 98.0801 74.6901 97.7801 74.9501C97.4801 75.2101 97.1401 75.4101 96.7401 75.5601C96.3401 75.7101 95.9101 75.7801 95.4401 75.7901L95.4301 75.8001ZM93.0701 71.9301C94.6401 71.9201 96.2201 71.9101 97.7901 71.9001C97.7501 71.4601 97.6201 71.0801 97.4001 70.7501C97.1801 70.4201 96.8901 70.1601 96.5501 69.9701C96.2001 69.7801 95.8201 69.6901 95.4101 69.6901C95.0001 69.6901 94.6301 69.7901 94.2801 69.9801C93.9301 70.1701 93.6601 70.4301 93.4401 70.7701C93.2301 71.1101 93.1001 71.4901 93.0701 71.9301Z" fill="#F5B531"/>
<path d="M103.85 69.89C103.26 69.89 102.75 70.04 102.3 70.32C101.85 70.6 101.53 70.99 101.35 71.48C101.35 72.87 101.35 74.26 101.35 75.66C100.96 75.66 100.57 75.66 100.19 75.66C100.19 73.42 100.19 71.17 100.19 68.93C100.55 68.93 100.92 68.93 101.28 68.93C101.28 69.44 101.28 69.95 101.28 70.46C101.52 69.99 101.84 69.61 102.23 69.33C102.62 69.04 103.04 68.88 103.48 68.85C103.57 68.85 103.64 68.85 103.71 68.85C103.77 68.85 103.83 68.85 103.87 68.86C103.87 69.21 103.87 69.55 103.87 69.9L103.85 69.89Z" fill="#F5B531"/>
<path d="M107.83 75.82C107.31 75.82 106.84 75.72 106.42 75.53C106 75.34 105.63 75.09 105.33 74.76C105.02 74.44 104.79 74.06 104.62 73.64C104.45 73.22 104.37 72.78 104.37 72.31C104.37 71.84 104.46 71.39 104.63 70.97C104.8 70.55 105.04 70.18 105.35 69.86C105.66 69.54 106.03 69.29 106.47 69.11C106.9 68.93 107.38 68.84 107.9 68.84C108.41 68.84 108.88 68.94 109.31 69.13C109.73 69.32 110.1 69.58 110.41 69.9C110.72 70.23 110.96 70.6 111.12 71.02C111.28 71.44 111.36 71.89 111.36 72.36C111.36 72.82 111.27 73.27 111.09 73.68C110.92 74.1 110.67 74.47 110.36 74.79C110.05 75.11 109.68 75.36 109.25 75.54C108.82 75.72 108.35 75.81 107.83 75.8V75.82ZM105.56 72.34C105.56 72.8 105.66 73.22 105.86 73.6C106.07 73.98 106.34 74.28 106.68 74.5C107.02 74.72 107.41 74.83 107.83 74.84C108.25 74.84 108.64 74.74 108.99 74.52C109.34 74.3 109.62 74 109.83 73.62C110.04 73.24 110.15 72.82 110.15 72.36C110.15 71.9 110.06 71.48 109.85 71.1C109.65 70.72 109.37 70.42 109.02 70.19C108.67 69.96 108.29 69.85 107.86 69.85C107.43 69.85 107.05 69.96 106.7 70.18C106.35 70.4 106.07 70.7 105.86 71.08C105.65 71.46 105.54 71.88 105.54 72.35L105.56 72.34Z" fill="#F5B531"/>
<path d="M112.84 67.7C112.84 67.22 112.85 66.75 112.86 66.27C113.25 66.27 113.64 66.28 114.03 66.29C114.03 66.77 114.02 67.24 114.01 67.72C113.62 67.72 113.23 67.71 112.84 67.7ZM112.73 75.74C112.76 73.48 112.79 71.23 112.82 68.97C113.21 68.97 113.6 68.98 113.99 68.99C113.96 71.25 113.92 73.5 113.89 75.76C113.5 75.76 113.12 75.75 112.73 75.74Z" fill="#F5B531"/>
<path d="M118.13 75.9601C117.56 75.9501 117.02 75.8501 116.52 75.6501C116.02 75.4601 115.59 75.1701 115.24 74.7901C115.39 74.5201 115.55 74.2601 115.7 73.9901C116.09 74.3601 116.48 74.6301 116.88 74.7901C117.27 74.9501 117.68 75.0401 118.09 75.0501C118.57 75.0501 118.95 74.9801 119.26 74.8101C119.56 74.6401 119.72 74.3901 119.73 74.0501C119.73 73.8001 119.66 73.6201 119.51 73.4901C119.36 73.3701 119.14 73.2601 118.86 73.1701C118.58 73.0801 118.24 72.9801 117.86 72.8701C117.39 72.7201 116.99 72.5701 116.66 72.4101C116.34 72.2501 116.09 72.0501 115.93 71.8201C115.77 71.5901 115.69 71.2901 115.69 70.9401C115.69 70.5101 115.82 70.1501 116.05 69.8601C116.29 69.5701 116.61 69.3501 117.01 69.2001C117.42 69.0501 117.88 68.9801 118.39 68.9901C118.9 69.0001 119.37 69.0901 119.78 69.2501C120.19 69.4101 120.55 69.6501 120.84 69.9601C120.66 70.2201 120.47 70.4801 120.29 70.7401C120.02 70.4601 119.73 70.2501 119.4 70.1001C119.07 69.9601 118.71 69.8801 118.3 69.8801C118.06 69.8801 117.83 69.9001 117.59 69.9501C117.36 70.0001 117.17 70.1001 117.01 70.2301C116.86 70.3701 116.78 70.5701 116.77 70.8201C116.77 71.0301 116.82 71.2001 116.94 71.3301C117.06 71.4601 117.23 71.5601 117.46 71.6501C117.69 71.7401 117.98 71.8401 118.31 71.9501C118.83 72.1101 119.28 72.2601 119.66 72.4201C120.04 72.5701 120.33 72.7701 120.54 73.0101C120.75 73.2501 120.85 73.5701 120.84 73.9801C120.83 74.6101 120.57 75.1001 120.07 75.4501C119.57 75.7901 118.91 75.9601 118.1 75.9401L118.13 75.9601Z" fill="#F5B531"/>
<path d="M125.26 76.13C124.74 76.12 124.27 76.01 123.85 75.81C123.43 75.61 123.06 75.35 122.76 75.02C122.45 74.69 122.22 74.31 122.06 73.89C121.9 73.47 121.82 73.02 121.83 72.54C121.84 71.9 122.01 71.33 122.32 70.81C122.63 70.29 123.06 69.88 123.61 69.58C124.15 69.28 124.77 69.13 125.47 69.15C126.17 69.17 126.78 69.35 127.29 69.69C127.8 70.03 128.19 70.46 128.46 70.99C128.73 71.52 128.86 72.08 128.84 72.68C128.84 72.77 128.84 72.85 128.83 72.93C128.83 73.01 128.81 73.07 128.8 73.12C126.89 73.06 124.98 73.01 123.06 72.96C123.08 73.4 123.2 73.79 123.41 74.13C123.62 74.47 123.89 74.75 124.23 74.95C124.57 75.15 124.94 75.26 125.33 75.27C125.75 75.28 126.15 75.19 126.54 74.99C126.92 74.79 127.19 74.53 127.34 74.2C127.67 74.3 128 74.4 128.34 74.5C128.18 74.82 127.95 75.11 127.65 75.36C127.35 75.61 126.99 75.8 126.59 75.94C126.18 76.08 125.75 76.14 125.28 76.12L125.26 76.13ZM123.04 72.17C124.61 72.21 126.19 72.25 127.76 72.3C127.74 71.86 127.62 71.47 127.41 71.14C127.2 70.8 126.92 70.53 126.58 70.33C126.24 70.13 125.86 70.03 125.44 70.02C125.03 70.01 124.65 70.09 124.3 70.27C123.95 70.45 123.66 70.7 123.44 71.03C123.21 71.36 123.08 71.74 123.03 72.17H123.04Z" fill="#F5B531"/>
<path d="M133.03 72.89C133.05 72.25 133.21 71.68 133.5 71.16C133.79 70.64 134.18 70.23 134.66 69.93C135.15 69.63 135.7 69.49 136.31 69.52C136.87 69.54 137.36 69.71 137.8 70.01C138.23 70.31 138.56 70.67 138.79 71.09C138.85 69.72 138.91 68.36 138.96 66.99C139.35 67.01 139.74 67.02 140.13 67.04C140.01 69.76 139.89 72.48 139.77 75.21C139.77 75.35 139.79 75.45 139.84 75.52C139.89 75.59 139.99 75.63 140.12 75.64C140.11 75.93 140.09 76.23 140.08 76.52C139.86 76.54 139.69 76.55 139.56 76.55C139.33 76.54 139.13 76.45 138.97 76.29C138.8 76.13 138.73 75.95 138.73 75.76C138.73 75.57 138.75 75.38 138.75 75.19C138.46 75.61 138.08 75.94 137.61 76.17C137.14 76.4 136.66 76.51 136.17 76.49C135.7 76.47 135.26 76.36 134.87 76.16C134.48 75.96 134.14 75.69 133.86 75.35C133.58 75.01 133.36 74.63 133.21 74.21C133.06 73.79 133 73.35 133.01 72.88L133.03 72.89ZM138.66 74.11C138.69 73.47 138.71 72.83 138.74 72.19C138.65 71.89 138.48 71.62 138.26 71.38C138.03 71.13 137.77 70.94 137.48 70.78C137.19 70.63 136.9 70.54 136.61 70.53C136.26 70.52 135.95 70.57 135.66 70.7C135.38 70.83 135.13 71.01 134.92 71.24C134.71 71.47 134.55 71.73 134.43 72.02C134.31 72.32 134.25 72.63 134.24 72.95C134.23 73.28 134.27 73.6 134.38 73.91C134.49 74.21 134.65 74.49 134.85 74.72C135.06 74.96 135.3 75.15 135.58 75.29C135.86 75.43 136.17 75.51 136.5 75.52C136.71 75.52 136.93 75.5 137.16 75.43C137.39 75.36 137.61 75.26 137.81 75.14C138.02 75.01 138.2 74.86 138.35 74.68C138.5 74.5 138.6 74.31 138.65 74.11H138.66Z" fill="#F5B531"/>
<path d="M144.71 76.87C144.19 76.84 143.72 76.73 143.3 76.52C142.88 76.32 142.52 76.04 142.23 75.71C141.93 75.37 141.71 74.99 141.55 74.56C141.4 74.13 141.33 73.68 141.35 73.21C141.38 72.58 141.56 72 141.88 71.49C142.2 70.98 142.64 70.58 143.19 70.29C143.74 70 144.36 69.87 145.05 69.9C145.75 69.93 146.35 70.13 146.85 70.48C147.35 70.83 147.73 71.27 147.99 71.8C148.25 72.33 148.36 72.9 148.33 73.5C148.33 73.59 148.32 73.67 148.31 73.75C148.31 73.83 148.29 73.89 148.28 73.94C146.37 73.84 144.46 73.74 142.55 73.65C142.56 74.09 142.67 74.48 142.87 74.83C143.07 75.18 143.34 75.46 143.67 75.66C144 75.87 144.37 75.98 144.77 76C145.19 76.02 145.6 75.94 145.98 75.75C146.36 75.56 146.64 75.3 146.8 74.97C147.13 75.08 147.46 75.19 147.79 75.29C147.62 75.61 147.38 75.89 147.08 76.14C146.77 76.38 146.41 76.57 146.01 76.7C145.6 76.83 145.16 76.88 144.7 76.86L144.71 76.87ZM142.57 72.87C144.14 72.94 145.72 73.02 147.29 73.1C147.28 72.66 147.17 72.27 146.97 71.93C146.77 71.59 146.5 71.31 146.16 71.11C145.82 70.9 145.45 70.79 145.03 70.77C144.62 70.75 144.24 70.83 143.89 71C143.54 71.17 143.24 71.42 143.01 71.74C142.78 72.06 142.63 72.44 142.58 72.87H142.57Z" fill="#F5B531"/>
<path d="M155.16 77.45C154.59 77.42 154.06 77.29 153.57 77.07C153.08 76.85 152.67 76.55 152.33 76.16C152.5 75.9 152.66 75.64 152.83 75.38C153.21 75.77 153.59 76.05 153.97 76.23C154.36 76.41 154.76 76.51 155.17 76.54C155.65 76.57 156.04 76.51 156.35 76.35C156.66 76.19 156.83 75.95 156.85 75.61C156.87 75.36 156.8 75.17 156.65 75.04C156.5 74.91 156.29 74.8 156.01 74.7C155.73 74.6 155.4 74.49 155.02 74.36C154.55 74.19 154.16 74.02 153.84 73.85C153.52 73.68 153.29 73.47 153.13 73.23C152.97 72.99 152.91 72.69 152.93 72.34C152.96 71.91 153.09 71.56 153.34 71.27C153.59 70.99 153.92 70.78 154.33 70.65C154.74 70.52 155.21 70.47 155.72 70.5C156.23 70.53 156.69 70.64 157.1 70.82C157.51 71 157.85 71.25 158.13 71.57C157.94 71.82 157.74 72.07 157.55 72.33C157.29 72.04 157.01 71.81 156.69 71.66C156.37 71.51 156.01 71.42 155.6 71.39C155.36 71.38 155.12 71.39 154.89 71.43C154.66 71.47 154.46 71.56 154.3 71.69C154.14 71.82 154.05 72.02 154.04 72.27C154.03 72.48 154.08 72.66 154.19 72.79C154.3 72.92 154.47 73.04 154.7 73.14C154.93 73.24 155.21 73.35 155.54 73.47C156.05 73.65 156.5 73.82 156.87 73.99C157.24 74.16 157.53 74.37 157.73 74.61C157.93 74.85 158.01 75.18 157.99 75.59C157.95 76.22 157.67 76.7 157.16 77.03C156.65 77.35 155.98 77.49 155.17 77.44L155.16 77.45Z" fill="#F5B531"/>
<path d="M164.09 77.92C163.37 76.77 162.65 75.62 161.93 74.48C161.47 74.85 161 75.22 160.54 75.59C160.49 76.28 160.45 76.97 160.4 77.67C160.01 77.64 159.63 77.62 159.24 77.59C159.45 74.44 159.66 71.29 159.86 68.14C160.25 68.17 160.64 68.19 161.03 68.22C160.89 70.28 160.75 72.34 160.61 74.41C161.88 73.34 163.15 72.27 164.43 71.2C164.85 71.23 165.27 71.26 165.69 71.29C164.7 72.15 163.72 73.01 162.73 73.88C163.6 75.26 164.47 76.64 165.33 78.02C164.91 77.99 164.49 77.96 164.08 77.93L164.09 77.92Z" fill="#F5B531"/>
<path d="M166.94 70.06C166.98 69.59 167.01 69.11 167.05 68.64C167.44 68.67 167.83 68.7 168.22 68.73C168.18 69.2 168.15 69.68 168.11 70.15C167.72 70.12 167.33 70.09 166.94 70.06ZM166.35 78.08C166.52 75.83 166.68 73.58 166.85 71.33C167.24 71.36 167.63 71.39 168.02 71.42C167.85 73.67 167.68 75.92 167.51 78.17C167.12 78.14 166.74 78.11 166.35 78.08Z" fill="#F5B531"/>
<path d="M35.28 90.6801C34.77 90.7201 34.3 90.6601 33.86 90.5101C33.43 90.3601 33.04 90.1301 32.71 89.8401C32.38 89.5401 32.1101 89.1901 31.9101 88.7901C31.7101 88.3801 31.5901 87.9501 31.5501 87.4701C31.5001 86.8401 31.6 86.2501 31.86 85.7001C32.12 85.1501 32.49 84.7001 33 84.3501C33.5 83.9901 34.1 83.7901 34.78 83.7401C35.47 83.6901 36.0801 83.8101 36.6201 84.0901C37.1501 84.3701 37.5801 84.7701 37.9001 85.2601C38.2201 85.7601 38.4001 86.3101 38.4401 86.9101C38.4401 87.0001 38.4401 87.0801 38.4501 87.1601C38.4501 87.2401 38.4501 87.3001 38.4501 87.3501C36.5701 87.4801 34.6801 87.6201 32.8001 87.7701C32.8701 88.2001 33.0201 88.5801 33.2601 88.9001C33.5001 89.2201 33.7901 89.4601 34.1501 89.6301C34.5001 89.8001 34.8701 89.8601 35.2601 89.8401C35.6801 89.8101 36.0601 89.6801 36.4101 89.4401C36.7601 89.2001 37 88.9201 37.11 88.5701C37.45 88.6401 37.7801 88.7001 38.1201 88.7701C38.0001 89.1101 37.8 89.4201 37.53 89.7001C37.26 89.9801 36.9301 90.2101 36.5501 90.3801C36.1701 90.5601 35.75 90.6601 35.29 90.6901L35.28 90.6801ZM32.6901 86.9801C34.2401 86.8601 35.7901 86.7401 37.3401 86.6301C37.2701 86.2001 37.1201 85.8201 36.8801 85.5101C36.6401 85.1901 36.34 84.9501 35.99 84.7901C35.64 84.6301 35.2501 84.5601 34.8401 84.5901C34.4401 84.6201 34.08 84.7401 33.75 84.9601C33.42 85.1701 33.1701 85.4501 32.9801 85.8001C32.7901 86.1501 32.7001 86.5401 32.7001 86.9801H32.6901Z" fill="#F5B531"/>
<path d="M43.3801 89.69C43.2901 89.74 43.1601 89.8 43.0001 89.88C42.8401 89.96 42.6501 90.03 42.4401 90.1C42.2301 90.17 42.0001 90.21 41.7601 90.22C41.4801 90.24 41.2201 90.21 40.9801 90.12C40.7401 90.04 40.5401 89.89 40.3901 89.69C40.2401 89.49 40.1501 89.23 40.1301 88.91C40.0301 87.4 39.9201 85.88 39.8201 84.37C39.5101 84.39 39.2001 84.41 38.8901 84.43C38.8701 84.13 38.8501 83.83 38.8301 83.54C39.1401 83.52 39.4501 83.5 39.7601 83.48C39.7101 82.73 39.6601 81.98 39.6001 81.23C39.9901 81.2 40.3701 81.18 40.7601 81.15C40.8101 81.9 40.8601 82.65 40.9101 83.4C41.4201 83.37 41.9301 83.33 42.4401 83.3C42.4601 83.6 42.4801 83.9 42.5001 84.19C41.9901 84.22 41.4801 84.26 40.9701 84.29C41.0601 85.69 41.1601 87.09 41.2501 88.48C41.2801 88.72 41.3801 88.89 41.5301 89C41.6901 89.11 41.8601 89.15 42.0601 89.14C42.2901 89.13 42.4901 89.07 42.6801 88.98C42.8701 88.89 42.9901 88.83 43.0501 88.79C43.1601 89.09 43.2701 89.38 43.3801 89.68V89.69Z" fill="#F5B531"/>
<path d="M50.0902 89.7C49.5302 89.73 48.9902 89.67 48.4902 89.51C47.9802 89.35 47.5402 89.1 47.1602 88.75C47.2902 88.47 47.4202 88.2 47.5502 87.92C47.9602 88.26 48.3702 88.49 48.7702 88.63C49.1702 88.76 49.5702 88.82 49.9802 88.79C50.4502 88.76 50.8202 88.65 51.1102 88.46C51.4002 88.27 51.5302 88 51.5102 87.66C51.5002 87.41 51.4102 87.23 51.2502 87.12C51.0902 87.01 50.8702 86.92 50.5902 86.85C50.3102 86.78 49.9702 86.71 49.5802 86.63C49.1002 86.52 48.7002 86.4 48.3702 86.26C48.0402 86.12 47.7802 85.95 47.6002 85.73C47.4202 85.51 47.3202 85.22 47.3002 84.87C47.2702 84.44 47.3702 84.07 47.5702 83.76C47.7802 83.45 48.0802 83.21 48.4702 83.03C48.8602 82.85 49.3102 82.75 49.8102 82.72C50.3202 82.69 50.7802 82.74 51.2002 82.87C51.6202 83 51.9902 83.21 52.3002 83.5C52.1402 83.77 51.9802 84.05 51.8202 84.32C51.5302 84.06 51.2302 83.87 50.9002 83.75C50.5702 83.63 50.2002 83.59 49.8002 83.61C49.5602 83.62 49.3302 83.67 49.1102 83.73C48.8902 83.8 48.7002 83.91 48.5602 84.06C48.4202 84.21 48.3602 84.41 48.3702 84.67C48.3802 84.88 48.4502 85.05 48.5802 85.17C48.7002 85.29 48.8802 85.38 49.1202 85.45C49.3602 85.52 49.6402 85.6 49.9802 85.68C50.5002 85.8 50.9602 85.92 51.3402 86.04C51.7302 86.16 52.0302 86.34 52.2502 86.56C52.4702 86.78 52.5902 87.1 52.6202 87.51C52.6502 88.14 52.4402 88.65 51.9702 89.03C51.5002 89.41 50.8702 89.63 50.0702 89.67L50.0902 89.7Z" fill="#F5B531"/>
<path d="M57.77 89.29C57.22 89.32 56.71 89.2 56.27 88.95C55.82 88.7 55.46 88.37 55.19 87.96C55.26 89.32 55.33 90.68 55.4 92.04C55.02 92.06 54.64 92.08 54.26 92.1C54.09 88.94 53.92 85.78 53.76 82.62C54.1 82.6 54.44 82.58 54.78 82.57C54.8 82.99 54.82 83.42 54.85 83.84C55.1 83.41 55.44 83.06 55.86 82.79C56.28 82.51 56.75 82.36 57.27 82.34C57.74 82.32 58.18 82.39 58.58 82.56C58.98 82.73 59.34 82.97 59.64 83.28C59.94 83.59 60.19 83.95 60.37 84.36C60.55 84.77 60.65 85.2 60.67 85.65C60.7 86.28 60.6 86.87 60.36 87.42C60.13 87.96 59.79 88.4 59.34 88.74C58.89 89.08 58.37 89.26 57.77 89.29ZM57.36 88.32C57.7 88.3 58 88.22 58.27 88.06C58.54 87.91 58.76 87.71 58.95 87.46C59.13 87.22 59.27 86.94 59.36 86.64C59.45 86.34 59.49 86.03 59.47 85.71C59.46 85.38 59.38 85.06 59.25 84.77C59.12 84.48 58.94 84.22 58.71 84C58.49 83.78 58.23 83.61 57.94 83.49C57.65 83.37 57.34 83.32 57.01 83.34C56.8 83.35 56.59 83.4 56.37 83.49C56.15 83.58 55.95 83.7 55.75 83.85C55.56 84 55.39 84.17 55.26 84.36C55.13 84.55 55.05 84.74 55.02 84.95C55.05 85.59 55.09 86.23 55.12 86.87C55.27 87.15 55.45 87.41 55.68 87.64C55.91 87.87 56.17 88.04 56.46 88.17C56.75 88.3 57.05 88.35 57.36 88.34V88.32Z" fill="#F5B531"/>
<path d="M65.1799 88.96C64.6699 88.98 64.1999 88.91 63.7799 88.74C63.3599 88.57 62.9799 88.34 62.6699 88.03C62.3499 87.72 62.0999 87.36 61.9199 86.95C61.7399 86.54 61.6299 86.1 61.6099 85.64C61.5899 85.17 61.6499 84.72 61.7999 84.29C61.9499 83.86 62.1699 83.48 62.4599 83.15C62.7499 82.82 63.1099 82.55 63.5199 82.34C63.9399 82.14 64.3999 82.03 64.9199 82.01C65.4299 81.99 65.8999 82.06 66.3199 82.23C66.7499 82.4 67.1199 82.64 67.4399 82.95C67.7599 83.26 68.0099 83.62 68.1999 84.04C68.3799 84.45 68.4799 84.9 68.4999 85.37C68.5199 85.83 68.4499 86.28 68.2999 86.7C68.1499 87.13 67.9299 87.51 67.6399 87.84C67.3499 88.17 66.9899 88.44 66.5799 88.64C66.1699 88.84 65.6999 88.95 65.1899 88.97L65.1799 88.96ZM62.7799 85.59C62.7999 86.05 62.9199 86.47 63.1399 86.83C63.3599 87.2 63.6399 87.48 63.9899 87.69C64.3399 87.89 64.7199 87.99 65.1399 87.97C65.5599 87.95 65.9299 87.83 66.2699 87.59C66.6099 87.35 66.8699 87.04 67.0599 86.65C67.2499 86.26 67.3399 85.84 67.3199 85.37C67.2999 84.91 67.1799 84.49 66.9599 84.12C66.7399 83.75 66.4499 83.46 66.0999 83.25C65.7499 83.04 65.3599 82.95 64.9399 82.96C64.5199 82.98 64.1499 83.11 63.8099 83.35C63.4799 83.59 63.2199 83.9 63.0299 84.29C62.8399 84.68 62.7599 85.1 62.7799 85.57V85.59Z" fill="#F5B531"/>
<path d="M73.42 82.7601C72.84 82.7901 72.34 82.9501 71.91 83.2401C71.48 83.5401 71.18 83.9301 71.01 84.4301C71.06 85.8201 71.1 87.2101 71.15 88.6001C70.77 88.6101 70.39 88.6301 70 88.6401C69.92 86.4001 69.84 84.1501 69.76 81.9101C70.12 81.9001 70.48 81.8901 70.84 81.8701C70.86 82.3801 70.87 82.8901 70.89 83.4001C71.11 82.9301 71.41 82.5401 71.79 82.2301C72.17 81.9301 72.57 81.7501 73 81.7001C73.09 81.7001 73.16 81.7001 73.22 81.7001C73.28 81.7001 73.33 81.7001 73.38 81.7001C73.39 82.0501 73.4 82.3901 73.41 82.7401L73.42 82.7601Z" fill="#F5B531"/>
<path d="M78.2399 88.1C78.1499 88.15 78.0199 88.21 77.8499 88.28C77.6899 88.35 77.4999 88.42 77.2799 88.48C77.0599 88.54 76.8299 88.57 76.5899 88.58C76.3099 88.58 76.0499 88.54 75.8199 88.45C75.5799 88.36 75.3899 88.21 75.2499 88C75.1099 87.79 75.0299 87.53 75.0199 87.21C74.9799 85.69 74.9299 84.18 74.8899 82.66C74.5799 82.66 74.2699 82.68 73.9599 82.69C73.9599 82.39 73.9399 82.09 73.9299 81.8C74.2399 81.8 74.5499 81.78 74.8599 81.77C74.8399 81.02 74.8199 80.27 74.7899 79.51C75.1799 79.5 75.5599 79.49 75.9499 79.48C75.9699 80.23 75.9899 80.98 76.0099 81.74C76.5199 81.73 77.0299 81.71 77.5499 81.7C77.5499 82 77.5699 82.3 77.5699 82.59C77.0599 82.6 76.5499 82.62 76.0399 82.63C76.0799 84.03 76.1199 85.43 76.1599 86.83C76.1799 87.07 76.2699 87.25 76.4199 87.36C76.5699 87.47 76.7499 87.53 76.9499 87.52C77.1799 87.52 77.3799 87.47 77.5699 87.39C77.7599 87.31 77.8799 87.25 77.9399 87.21C78.0399 87.51 78.1399 87.81 78.2399 88.11V88.1Z" fill="#F5B531"/>
<path d="M81.65 88.4501C81.09 88.4601 80.55 88.3801 80.05 88.2101C79.55 88.0401 79.12 87.7701 78.75 87.4001C78.89 87.1301 79.03 86.8601 79.17 86.5901C79.57 86.9401 79.97 87.1901 80.36 87.3401C80.76 87.4901 81.16 87.5601 81.56 87.5501C82.03 87.5401 82.41 87.4401 82.7 87.2601C82.99 87.0801 83.14 86.8201 83.13 86.4801C83.13 86.2301 83.04 86.0501 82.89 85.9301C82.73 85.8101 82.52 85.7201 82.24 85.6401C81.96 85.5601 81.63 85.4801 81.24 85.3801C80.77 85.2501 80.37 85.1201 80.04 84.9701C79.71 84.8201 79.46 84.6401 79.29 84.4101C79.12 84.1801 79.03 83.8901 79.02 83.5401C79.01 83.1101 79.11 82.7501 79.33 82.4401C79.55 82.1401 79.86 81.9101 80.25 81.7401C80.64 81.5801 81.1 81.4901 81.6 81.4801C82.11 81.4701 82.57 81.5401 82.98 81.6801C83.39 81.8301 83.75 82.0501 84.06 82.3501C83.89 82.6201 83.72 82.8801 83.55 83.1501C83.27 82.8801 82.97 82.6801 82.65 82.5501C82.32 82.4201 81.96 82.3601 81.56 82.3701C81.32 82.3701 81.09 82.4101 80.87 82.4701C80.64 82.5301 80.46 82.6301 80.31 82.7801C80.16 82.9301 80.1 83.1301 80.1 83.3801C80.1 83.5901 80.17 83.7601 80.29 83.8801C80.41 84.0001 80.59 84.1001 80.82 84.1801C81.05 84.2601 81.34 84.3501 81.67 84.4401C82.19 84.5701 82.64 84.7101 83.02 84.8501C83.4 84.9901 83.7 85.1701 83.91 85.4001C84.12 85.6301 84.23 85.9501 84.24 86.3601C84.25 86.9901 84.02 87.4901 83.54 87.8601C83.06 88.2301 82.42 88.4201 81.62 88.4301L81.65 88.4501Z" fill="#F5B531"/>
<path d="M88.48 84.85C88.48 84.21 88.6 83.63 88.86 83.1C89.12 82.57 89.48 82.14 89.95 81.82C90.41 81.5 90.95 81.33 91.55 81.33C92.1 81.33 92.6 81.46 93.04 81.74C93.48 82.02 93.82 82.36 94.07 82.77C94.06 81.4 94.05 80.04 94.04 78.67C94.43 78.67 94.81 78.67 95.2 78.67C95.22 81.39 95.23 84.12 95.25 86.84C95.25 86.98 95.28 87.08 95.34 87.14C95.4 87.2 95.49 87.24 95.62 87.25C95.62 87.54 95.62 87.84 95.62 88.13C95.4 88.17 95.23 88.18 95.11 88.18C94.88 88.18 94.69 88.11 94.52 87.95C94.35 87.8 94.26 87.62 94.26 87.43C94.26 87.24 94.26 87.05 94.26 86.86C93.99 87.29 93.64 87.64 93.19 87.89C92.74 88.14 92.27 88.27 91.79 88.28C91.32 88.28 90.89 88.2 90.49 88.02C90.09 87.84 89.75 87.59 89.45 87.27C89.15 86.95 88.92 86.58 88.76 86.17C88.59 85.76 88.51 85.32 88.5 84.85H88.48ZM94.08 85.78C94.08 85.14 94.08 84.5 94.07 83.85C93.96 83.56 93.79 83.3 93.55 83.06C93.31 82.83 93.05 82.64 92.75 82.5C92.46 82.36 92.16 82.29 91.88 82.3C91.54 82.3 91.23 82.38 90.96 82.52C90.69 82.66 90.45 82.86 90.26 83.09C90.07 83.33 89.92 83.6 89.82 83.9C89.72 84.2 89.67 84.51 89.67 84.84C89.67 85.17 89.74 85.49 89.86 85.79C89.98 86.09 90.15 86.35 90.37 86.58C90.59 86.81 90.84 86.99 91.12 87.11C91.4 87.24 91.71 87.3 92.04 87.29C92.25 87.29 92.46 87.25 92.68 87.17C92.9 87.09 93.11 86.98 93.31 86.84C93.51 86.7 93.68 86.54 93.81 86.35C93.95 86.16 94.04 85.97 94.08 85.76V85.78Z" fill="#F5B531"/>
<path d="M100.17 88.24C99.66 88.24 99.1899 88.15 98.7699 87.96C98.3499 87.78 97.98 87.52 97.67 87.2C97.36 86.88 97.12 86.51 96.95 86.09C96.78 85.67 96.6899 85.22 96.6899 84.75C96.6899 84.11 96.8299 83.53 97.1299 83.01C97.4299 82.49 97.84 82.06 98.36 81.74C98.89 81.42 99.4899 81.26 100.18 81.26C100.87 81.26 101.47 81.42 101.98 81.74C102.49 82.06 102.89 82.48 103.17 83.01C103.45 83.53 103.59 84.09 103.59 84.69C103.59 84.78 103.59 84.86 103.59 84.94C103.59 85.02 103.58 85.08 103.57 85.13C101.68 85.13 99.7999 85.13 97.9099 85.13C97.9499 85.57 98.0699 85.95 98.2899 86.29C98.4999 86.63 98.7799 86.89 99.1199 87.08C99.4599 87.27 99.82 87.37 100.22 87.37C100.64 87.37 101.03 87.27 101.4 87.06C101.77 86.85 102.02 86.58 102.16 86.24C102.49 86.33 102.82 86.42 103.15 86.51C103 86.84 102.78 87.13 102.49 87.39C102.2 87.65 101.85 87.85 101.46 88C101.06 88.15 100.64 88.22 100.18 88.22L100.17 88.24ZM97.8699 84.35C99.4199 84.35 100.97 84.35 102.53 84.35C102.5 83.91 102.37 83.53 102.15 83.2C101.93 82.87 101.65 82.61 101.31 82.42C100.97 82.23 100.59 82.14 100.18 82.14C99.7799 82.14 99.4099 82.24 99.0699 82.42C98.7299 82.61 98.4499 82.87 98.2399 83.2C98.0299 83.53 97.8999 83.92 97.8699 84.35Z" fill="#F5B531"/>
<path d="M118.41 88.29C118.03 88.29 117.65 88.27 117.26 88.27C117.28 87.02 117.31 85.77 117.33 84.52C117.34 83.82 117.24 83.3 117.01 82.96C116.78 82.62 116.44 82.45 115.99 82.44C115.53 82.44 115.1 82.59 114.72 82.91C114.34 83.23 114.07 83.66 113.9 84.18C113.88 85.53 113.86 86.87 113.84 88.22C113.46 88.22 113.08 88.21 112.69 88.2C112.71 86.95 112.72 85.7 112.74 84.45C112.75 83.74 112.64 83.22 112.42 82.88C112.2 82.55 111.86 82.38 111.4 82.37C110.95 82.37 110.53 82.52 110.14 82.84C109.76 83.16 109.48 83.58 109.32 84.11C109.31 85.46 109.29 86.81 109.28 88.17C108.9 88.17 108.52 88.17 108.13 88.16C108.15 85.92 108.17 83.67 108.19 81.43C108.54 81.43 108.89 81.43 109.24 81.43C109.24 81.91 109.24 82.4 109.23 82.88C109.51 82.38 109.88 82 110.33 81.74C110.78 81.47 111.28 81.35 111.84 81.35C112.41 81.35 112.86 81.52 113.2 81.83C113.54 82.14 113.74 82.54 113.81 83.02C114.12 82.49 114.5 82.09 114.94 81.82C115.38 81.55 115.88 81.42 116.44 81.43C116.83 81.43 117.16 81.51 117.43 81.66C117.69 81.81 117.9 82.01 118.05 82.26C118.2 82.52 118.31 82.82 118.37 83.16C118.43 83.5 118.46 83.88 118.45 84.28C118.42 85.62 118.4 86.96 118.37 88.3L118.41 88.29Z" fill="#F5B531"/>
<path d="M123.16 88.5301C122.65 88.5201 122.19 88.4101 121.77 88.2201C121.36 88.0301 121 87.7601 120.71 87.4401C120.41 87.1101 120.19 86.7401 120.03 86.3101C119.87 85.8901 119.8 85.4401 119.81 84.9801C119.81 84.5101 119.91 84.0601 120.09 83.6501C120.26 83.2301 120.51 82.8701 120.82 82.5501C121.13 82.2401 121.5 81.9901 121.93 81.8201C122.36 81.6501 122.83 81.5701 123.35 81.5801C123.86 81.5901 124.32 81.7001 124.73 81.8901C125.15 82.0901 125.5 82.3501 125.8 82.6801C126.1 83.0101 126.33 83.3901 126.48 83.8101C126.63 84.2401 126.7 84.6801 126.69 85.1601C126.68 85.6201 126.58 86.0601 126.4 86.4801C126.22 86.9001 125.98 87.2601 125.66 87.5701C125.35 87.8801 124.98 88.1301 124.55 88.3001C124.12 88.4701 123.65 88.5501 123.14 88.5401L123.16 88.5301ZM120.98 85.0101C120.97 85.4701 121.06 85.8901 121.26 86.2801C121.46 86.6601 121.72 86.9701 122.05 87.1901C122.38 87.4201 122.76 87.5401 123.18 87.5501C123.6 87.5601 123.98 87.4601 124.33 87.2501C124.68 87.0401 124.96 86.7401 125.18 86.3701C125.39 85.9901 125.51 85.5801 125.52 85.1101C125.53 84.6501 125.44 84.2301 125.25 83.8401C125.06 83.4601 124.79 83.1501 124.45 82.9201C124.11 82.6901 123.73 82.5701 123.31 82.5601C122.89 82.5501 122.51 82.6501 122.16 82.8701C121.81 83.0901 121.53 83.3801 121.32 83.7601C121.11 84.1301 120.99 84.5501 120.98 85.0201V85.0101Z" fill="#F5B531"/>
<path d="M133.89 88.7401C133.51 88.7301 133.13 88.7101 132.74 88.7001C132.79 87.4501 132.83 86.2001 132.88 84.9501C132.91 84.2401 132.81 83.7101 132.6 83.3801C132.39 83.0401 132.06 82.8701 131.6 82.8501C131.29 82.8401 130.97 82.9001 130.66 83.0501C130.34 83.1901 130.06 83.3901 129.81 83.6401C129.56 83.8901 129.38 84.1901 129.26 84.5301C129.22 85.8801 129.17 87.2301 129.13 88.5801C128.75 88.5701 128.37 88.5601 127.98 88.5401C128.05 86.3001 128.12 84.0501 128.19 81.8101C128.54 81.8201 128.89 81.8301 129.24 81.8401C129.22 82.3201 129.21 82.8101 129.19 83.2901C129.38 82.9801 129.63 82.7101 129.92 82.4901C130.22 82.2701 130.55 82.1001 130.92 81.9801C131.29 81.8601 131.68 81.8101 132.08 81.8301C132.47 81.8401 132.8 81.9301 133.06 82.0801C133.32 82.2301 133.52 82.4401 133.67 82.7001C133.81 82.9601 133.91 83.2601 133.96 83.6101C134.01 83.9601 134.03 84.3301 134.02 84.7301C133.97 86.0701 133.92 87.4101 133.87 88.7401H133.89Z" fill="#F5B531"/>
<path d="M139.13 88.6501C139.03 88.6901 138.9 88.7401 138.73 88.8001C138.56 88.8601 138.37 88.9101 138.15 88.9601C137.93 89.0001 137.7 89.0201 137.46 89.0101C137.18 89.0001 136.93 88.9401 136.7 88.8301C136.47 88.7201 136.29 88.5601 136.16 88.3401C136.03 88.1201 135.97 87.8501 135.98 87.5301C136.04 86.0101 136.1 84.5001 136.16 82.9801C135.85 82.9701 135.54 82.9601 135.23 82.9401C135.24 82.6401 135.25 82.3401 135.26 82.0501C135.57 82.0601 135.88 82.0701 136.19 82.0901C136.22 81.3401 136.25 80.5901 136.28 79.8301C136.67 79.8501 137.05 79.8601 137.44 79.8801C137.41 80.6301 137.38 81.3801 137.35 82.1401C137.86 82.1601 138.37 82.1801 138.88 82.2001C138.87 82.5001 138.85 82.8001 138.84 83.0901C138.33 83.0701 137.82 83.0501 137.31 83.0301C137.25 84.4301 137.19 85.8301 137.14 87.2301C137.14 87.4701 137.22 87.6601 137.37 87.7801C137.51 87.9001 137.68 87.9701 137.88 87.9801C138.11 87.9801 138.32 87.9601 138.51 87.8901C138.7 87.8201 138.83 87.7701 138.9 87.7401C138.98 88.0501 139.06 88.3501 139.13 88.6601V88.6501Z" fill="#F5B531"/>
<path d="M139.74 87.03C139.76 86.6 139.9 86.23 140.16 85.93C140.42 85.63 140.78 85.4 141.22 85.25C141.66 85.1 142.17 85.04 142.75 85.06C143.05 85.07 143.38 85.11 143.71 85.18C144.05 85.24 144.34 85.33 144.6 85.44C144.6 85.28 144.62 85.11 144.62 84.95C144.65 84.44 144.51 84.03 144.21 83.72C143.91 83.41 143.47 83.24 142.9 83.21C142.52 83.19 142.16 83.24 141.81 83.36C141.46 83.48 141.09 83.65 140.69 83.89C140.56 83.62 140.43 83.34 140.31 83.07C140.77 82.79 141.22 82.58 141.68 82.45C142.13 82.32 142.6 82.27 143.08 82.29C143.95 82.33 144.63 82.6 145.12 83.1C145.6 83.6 145.82 84.28 145.78 85.12C145.73 86.07 145.68 87.01 145.63 87.96C145.63 88.1 145.65 88.2 145.7 88.27C145.75 88.34 145.84 88.38 145.97 88.39C145.95 88.68 145.94 88.98 145.92 89.27C145.81 89.28 145.71 89.29 145.63 89.29C145.55 89.29 145.48 89.29 145.43 89.29C145.16 89.28 144.96 89.19 144.84 89.04C144.71 88.89 144.64 88.73 144.64 88.56C144.64 88.42 144.64 88.27 144.64 88.13C144.33 88.5 143.92 88.77 143.44 88.95C142.95 89.13 142.47 89.22 142.01 89.19C141.56 89.17 141.16 89.06 140.81 88.86C140.46 88.66 140.2 88.4 140.01 88.08C139.82 87.76 139.74 87.4 139.76 87.02L139.74 87.03ZM144.15 87.71C144.26 87.6 144.35 87.48 144.42 87.36C144.49 87.24 144.52 87.14 144.53 87.05C144.54 86.77 144.56 86.49 144.57 86.22C144.31 86.1 144.03 86.01 143.73 85.94C143.44 85.87 143.15 85.83 142.86 85.81C142.28 85.78 141.8 85.87 141.43 86.08C141.06 86.29 140.86 86.59 140.85 86.99C140.85 87.2 140.89 87.41 141 87.62C141.11 87.83 141.27 88 141.5 88.14C141.72 88.28 142.01 88.36 142.34 88.37C142.7 88.39 143.04 88.33 143.37 88.21C143.7 88.08 143.96 87.92 144.16 87.72L144.15 87.71Z" fill="#F5B531"/>
<path d="M150.1 89.6301C149.64 89.6001 149.22 89.4901 148.85 89.2801C148.47 89.0701 148.16 88.8001 147.9 88.4601C147.64 88.1201 147.44 87.7401 147.31 87.3201C147.18 86.9001 147.13 86.4601 147.15 86.0101C147.17 85.5401 147.27 85.0901 147.45 84.6801C147.62 84.2601 147.86 83.9001 148.16 83.5901C148.46 83.2801 148.81 83.0401 149.2 82.8801C149.59 82.7101 150.03 82.6501 150.5 82.6701C151.07 82.7001 151.56 82.8701 151.96 83.1601C152.37 83.4601 152.7 83.8301 152.97 84.2601C153 83.8101 153.02 83.3601 153.05 82.9101C153.39 82.9301 153.73 82.9501 154.07 82.9701C153.94 85.1901 153.8 87.4101 153.67 89.6201C153.63 90.2601 153.45 90.7801 153.11 91.2001C152.78 91.6201 152.34 91.9301 151.8 92.1301C151.26 92.3301 150.68 92.4101 150.04 92.3701C149.28 92.3301 148.66 92.1601 148.19 91.8701C147.72 91.5801 147.34 91.1901 147.04 90.7201C147.27 90.5401 147.5 90.3501 147.73 90.1701C147.98 90.5801 148.31 90.9001 148.73 91.1201C149.15 91.3401 149.6 91.4701 150.08 91.4901C150.5 91.5101 150.88 91.4601 151.24 91.3401C151.6 91.2101 151.89 91.0001 152.12 90.7101C152.35 90.4201 152.48 90.0501 152.51 89.5901C152.53 89.1901 152.56 88.8001 152.58 88.4001C152.3 88.8001 151.94 89.1101 151.49 89.3201C151.04 89.5401 150.57 89.6301 150.08 89.6001L150.1 89.6301ZM150.5 88.7201C150.74 88.7301 150.98 88.7001 151.21 88.6301C151.44 88.5601 151.66 88.4501 151.85 88.3201C152.05 88.1901 152.22 88.0401 152.36 87.8601C152.5 87.6901 152.6 87.5101 152.65 87.3201C152.69 86.6701 152.73 86.0201 152.76 85.3801C152.66 85.0601 152.5 84.7801 152.29 84.5301C152.08 84.2801 151.83 84.0801 151.55 83.9301C151.27 83.7801 150.98 83.7001 150.67 83.6801C150.32 83.6601 150 83.7201 149.72 83.8501C149.44 83.9801 149.19 84.1701 148.99 84.4001C148.78 84.6401 148.62 84.9001 148.5 85.2001C148.38 85.5001 148.31 85.8001 148.29 86.1101C148.27 86.4501 148.31 86.7701 148.42 87.0701C148.52 87.3701 148.68 87.6501 148.87 87.8901C149.06 88.1301 149.3 88.3301 149.58 88.4801C149.86 88.6301 150.16 88.7101 150.48 88.7301L150.5 88.7201Z" fill="#F5B531"/>
<path d="M161.41 90.21C161.03 90.18 160.65 90.16 160.27 90.13C160.35 88.88 160.44 87.63 160.52 86.38C160.57 85.67 160.49 85.14 160.29 84.8C160.09 84.46 159.76 84.27 159.31 84.24C159 84.22 158.68 84.28 158.36 84.41C158.04 84.54 157.75 84.73 157.5 84.98C157.24 85.22 157.05 85.51 156.93 85.85C156.84 87.2 156.76 88.55 156.67 89.9C156.29 89.88 155.91 89.85 155.53 89.83C155.67 87.59 155.81 85.35 155.95 83.11C156.3 83.13 156.65 83.15 157 83.18C156.97 83.66 156.94 84.15 156.91 84.63C157.11 84.33 157.37 84.07 157.67 83.85C157.97 83.64 158.31 83.48 158.69 83.37C159.07 83.27 159.45 83.23 159.86 83.25C160.25 83.28 160.58 83.37 160.83 83.53C161.09 83.69 161.28 83.9 161.42 84.16C161.55 84.42 161.64 84.73 161.69 85.08C161.73 85.43 161.74 85.8 161.71 86.2C161.62 87.54 161.52 88.87 161.43 90.21H161.41Z" fill="#F5B531"/>
<path d="M166.18 90.69C165.67 90.65 165.21 90.53 164.8 90.31C164.39 90.1 164.05 89.82 163.76 89.47C163.48 89.13 163.26 88.74 163.12 88.31C162.98 87.88 162.93 87.43 162.96 86.96C163 86.33 163.19 85.76 163.53 85.26C163.86 84.76 164.31 84.37 164.86 84.09C165.41 83.81 166.03 83.7 166.71 83.75C167.4 83.8 167.99 84.01 168.47 84.37C168.96 84.73 169.32 85.18 169.56 85.72C169.8 86.26 169.9 86.83 169.85 87.43C169.85 87.52 169.83 87.6 169.82 87.68C169.81 87.76 169.8 87.82 169.79 87.86C167.91 87.71 166.03 87.57 164.14 87.43C164.14 87.87 164.24 88.26 164.43 88.61C164.62 88.96 164.87 89.25 165.2 89.46C165.52 89.68 165.88 89.8 166.27 89.83C166.69 89.86 167.09 89.79 167.47 89.61C167.85 89.43 168.13 89.18 168.29 88.85C168.61 88.97 168.94 89.08 169.26 89.2C169.09 89.52 168.84 89.79 168.53 90.03C168.22 90.27 167.86 90.44 167.46 90.56C167.05 90.68 166.62 90.72 166.16 90.68L166.18 90.69ZM164.17 86.64C165.72 86.75 167.27 86.87 168.82 86.99C168.82 86.55 168.72 86.16 168.53 85.81C168.34 85.46 168.08 85.18 167.75 84.97C167.42 84.76 167.06 84.63 166.65 84.6C166.25 84.57 165.87 84.64 165.52 84.8C165.17 84.96 164.87 85.2 164.63 85.52C164.39 85.84 164.24 86.21 164.17 86.64Z" fill="#F5B531"/>
<path d="M74.5599 35.9901C73.4099 31.1401 72.1899 26.6901 70.8899 22.7201C69.9199 19.7401 68.9099 17.0301 67.8599 14.6101C67.0799 12.7901 66.2699 11.1401 65.4199 9.64005C64.7799 8.52005 64.1299 7.49005 63.4299 6.55005C62.3799 5.14005 61.2599 3.91005 59.8799 2.92005C59.1799 2.43005 58.4199 2.00005 57.5599 1.69005C56.6999 1.38005 55.7499 1.18005 54.7599 1.18005C54.6799 1.18005 54.6099 1.18005 54.5499 1.18005C53.5099 1.20005 52.5099 1.45005 51.6299 1.82005C50.7999 2.17005 50.0599 2.63005 49.3899 3.15005C48.1499 4.12005 47.1599 5.29005 46.2499 6.61005C45.4599 7.77005 44.7299 9.05005 44.0499 10.4601C42.8499 12.9301 41.7499 15.8001 40.7299 19.0601C39.1899 23.9601 37.8199 29.7301 36.6199 36.2101C35.4299 42.6901 34.4199 49.8901 33.6499 57.5901L42.7099 58.5C43.3499 52.18 44.1399 46.2401 45.0599 40.8001C45.1299 40.8301 45.2099 40.8501 45.2799 40.8801C46.1099 41.1701 46.9499 41.3901 47.7599 41.5401C49.3899 41.8501 50.9899 41.9501 52.5099 41.9501C54.2299 41.9501 55.8499 41.8301 57.3099 41.7201C59.7599 41.5401 61.9499 41.1401 63.8499 40.6601C64.6699 40.4601 65.4399 40.2401 66.1499 40.0101C67.4299 45.7001 68.6099 51.9901 69.6299 58.7201L78.6299 57.3501C77.4599 49.6301 76.0799 42.4401 74.5599 35.9701V35.9901ZM56.6099 32.6601C55.1799 32.7601 53.7799 32.8601 52.4999 32.8601C51.3699 32.8601 50.3299 32.7901 49.4699 32.6201C48.5999 32.4601 47.9299 32.2101 47.4199 31.9101C47.2199 31.7901 47.0399 31.6601 46.8599 31.4901C47.3299 29.3901 47.8199 27.4001 48.3199 25.5501C49.0699 22.8001 49.8499 20.3301 50.6399 18.2201C51.2299 16.6401 51.8299 15.2601 52.4099 14.1001C52.8499 13.2301 53.2699 12.5101 53.6599 11.9201C54.1199 11.2401 54.5299 10.7701 54.8099 10.5101C55.1199 10.7701 55.5899 11.2501 56.1099 11.9501C57.1499 13.3501 58.3899 15.6001 59.6199 18.4901C61.0799 21.8901 62.5399 26.1901 63.9199 31.1801C62.0399 31.8001 59.5599 32.4301 56.6199 32.6601H56.6099Z" fill="#F5B531"/>
<path d="M30.27 47.98C28.31 48.74 25.3 49.68 21.55 49.97C20.13 50.08 18.73 50.17 17.44 50.17C16.31 50.17 15.27 50.1 14.41 49.93C13.54 49.77 12.87 49.52 12.37 49.22C12.12 49.07 11.91 48.91 11.69 48.68C11.32 48.3 10.94 47.74 10.59 46.93C10.06 45.73 9.65 43.98 9.42 41.92C9.18 39.86 9.1 37.5 9.11 35.03C9.11 33.53 9.14 31.99 9.16 30.44C9.27 24.13 10.09 14.82 13.61 3.65003L4.92 0.910034C1.08 13.07 0.170003 23.33 0.0500031 30.28C0.0200031 31.82 0 33.42 0 35.03C0 37.04 0.0400008 39.08 0.200001 41.09C0.310001 42.6 0.490002 44.09 0.760002 45.56C1.18 47.76 1.81 49.9 2.9 51.91C3.44 52.91 4.11 53.88 4.92 54.76C5.73 55.64 6.68 56.43 7.77 57.06C9.39 58.01 11.08 58.55 12.72 58.87C14.36 59.18 15.95 59.27 17.47 59.27C19.19 59.27 20.81 59.15 22.27 59.04C24.72 58.85 26.91 58.46 28.81 57.98C30.71 57.51 32.32 56.96 33.59 56.47L30.3 47.98H30.27Z" fill="#F5B531"/>
<path d="M142.93 44.54C142.46 42.77 141.68 41.17 140.76 39.62C139.94 38.27 139 36.95 137.99 35.64C136.2 33.35 134.17 31.09 132.13 28.86C130.6 27.18 129.07 25.53 127.64 23.93C125.5 21.53 123.61 19.24 122.38 17.3C121.76 16.34 121.31 15.47 121.05 14.78C120.78 14.09 120.71 13.61 120.71 13.37C120.71 13.18 120.73 13.14 120.76 13.08C120.78 13.03 120.81 12.99 120.88 12.9C121.01 12.75 121.35 12.46 121.97 12.17C122.9 11.72 124.43 11.28 126.31 11.02C128.19 10.75 130.42 10.62 132.79 10.63C134.51 10.63 136.31 10.69 138.12 10.8L138.67 1.71002C136.71 1.59002 134.74 1.52002 132.8 1.52002C130.76 1.52002 128.75 1.60002 126.82 1.79002C125.37 1.94002 123.96 2.15002 122.6 2.45002C120.56 2.91002 118.63 3.55002 116.84 4.61002C115.95 5.14002 115.1 5.79002 114.34 6.59002C113.58 7.39002 112.91 8.34002 112.44 9.41002C111.87 10.68 111.62 12.06 111.62 13.35V13.39C111.62 14.44 111.77 15.44 112.02 16.39C112.49 18.18 113.26 19.79 114.19 21.35C115.01 22.72 115.94 24.05 116.96 25.37C118.75 27.67 120.78 29.95 122.83 32.19C124.36 33.87 125.89 35.52 127.32 37.12C129.46 39.51 131.35 41.8 132.59 43.72C133.21 44.68 133.66 45.53 133.92 46.21C134.05 46.54 134.14 46.83 134.19 47.06C134.24 47.29 134.25 47.45 134.25 47.55C134.25 47.7 134.23 47.72 134.22 47.75L134.17 47.83C134.12 47.9 133.98 48.06 133.6 48.29C133.03 48.64 131.9 49.11 130.05 49.46C128.21 49.81 125.68 50.04 122.4 50.04C119.46 50.04 115.91 49.86 111.69 49.44L110.79 58.5C115.25 58.94 119.09 59.15 122.4 59.15C125.22 59.15 127.66 59 129.81 58.72C131.43 58.5 132.87 58.21 134.2 57.83C136.17 57.26 137.87 56.48 139.31 55.41C140.03 54.87 140.68 54.26 141.23 53.58C141.78 52.9 142.23 52.15 142.56 51.39C143.1 50.16 143.34 48.83 143.34 47.59V47.55C143.34 46.51 143.19 45.51 142.93 44.57V44.54Z" fill="#F5B531"/>
<path d="M110.87 44.54C110.4 42.77 109.62 41.17 108.69 39.62C107.87 38.27 106.94 36.95 105.92 35.64C104.13 33.35 102.1 31.09 100.06 28.86C98.53 27.18 96.9999 25.53 95.5699 23.93C93.4299 21.53 91.54 19.24 90.31 17.3C89.69 16.34 89.24 15.47 88.97 14.78C88.7 14.09 88.6299 13.61 88.6299 13.37C88.6299 13.18 88.6499 13.14 88.6799 13.08C88.6999 13.03 88.7299 12.99 88.7999 12.9C88.9299 12.75 89.2699 12.46 89.8999 12.17C90.8199 11.72 92.3499 11.28 94.2399 11.02C96.1199 10.75 98.3399 10.62 100.71 10.63C102.43 10.63 104.23 10.69 106.04 10.8L106.59 1.71002C104.63 1.59002 102.66 1.52002 100.71 1.52002C98.6699 1.52002 96.6599 1.60002 94.7299 1.79002C93.2799 1.94002 91.8699 2.15002 90.5099 2.45002C88.4699 2.91002 86.5399 3.55002 84.7599 4.61002C83.8699 5.14002 83.01 5.79002 82.25 6.59002C81.49 7.39002 80.8199 8.34002 80.3499 9.41002C79.7899 10.68 79.53 12.06 79.53 13.35V13.38C79.53 14.43 79.6799 15.43 79.9299 16.38C80.3899 18.17 81.1699 19.78 82.0999 21.34C82.9199 22.71 83.8599 24.04 84.8799 25.36C86.6699 27.66 88.6999 29.94 90.7399 32.18C92.2699 33.86 93.8099 35.51 95.2299 37.11C97.37 39.5 99.26 41.79 100.5 43.71C101.12 44.67 101.57 45.52 101.83 46.2C101.96 46.53 102.05 46.82 102.1 47.05C102.15 47.28 102.16 47.44 102.16 47.54C102.16 47.69 102.14 47.71 102.13 47.74L102.08 47.82C102.03 47.89 101.89 48.05 101.5 48.28C100.94 48.63 99.8 49.1 97.95 49.45C96.11 49.8 93.5899 50.03 90.2999 50.03C87.3599 50.03 83.82 49.85 79.59 49.43L78.6899 58.49C83.1499 58.93 86.9799 59.14 90.2999 59.14C93.1199 59.14 95.56 58.99 97.72 58.71C99.33 58.49 100.78 58.2 102.1 57.82C104.08 57.25 105.77 56.47 107.22 55.4C107.94 54.86 108.59 54.25 109.13 53.57C109.68 52.89 110.13 52.14 110.46 51.38C111.01 50.14 111.25 48.8 111.25 47.54C111.25 46.5 111.09 45.5 110.84 44.56L110.87 44.54Z" fill="#F5B531"/>
<path d="M201.31 31.36C201.31 31.73 201.31 32.09 201.31 32.45C201.15 43.37 198.55 52.13 196.46 57.68L187.94 54.46C189.79 49.56 192.07 41.86 192.2 32.32C192.2 32 192.2 31.68 192.2 31.35C192.2 28.43 192.01 25.08 191.62 21.85C191.23 18.62 190.62 15.5 189.86 13.1C189.59 12.24 189.3 11.48 189.02 10.85C188.89 11.13 188.75 11.44 188.61 11.76C188.2 12.71 187.76 13.8 187.32 14.98C186.72 16.56 186.1 18.28 185.43 20.04C184.55 22.39 183.61 24.79 182.53 27.03C181.91 28.31 181.25 29.54 180.49 30.7C179.62 32.02 178.65 33.26 177.35 34.33C176.66 34.89 175.87 35.41 174.95 35.8C173.98 36.21 172.85 36.47 171.7 36.47H171.69C170.89 36.47 170.1 36.35 169.36 36.13C168.63 35.91 167.95 35.6 167.34 35.24C166.12 34.51 165.17 33.61 164.34 32.64C163.79 31.99 163.3 31.31 162.85 30.61C162.24 29.67 161.69 28.68 161.18 27.66C160.5 26.29 159.88 24.87 159.29 23.42C158.51 21.49 157.78 19.52 157.09 17.65C156.17 15.16 155.3 12.85 154.52 11.13C154.47 11.03 154.42 10.93 154.38 10.82C154.36 10.87 154.33 10.92 154.31 10.97C154.02 11.62 153.74 12.41 153.47 13.28C153.11 14.45 152.78 15.78 152.5 17.21C152.12 19.11 151.83 21.18 151.61 23.26C151.33 26.03 151.19 28.83 151.19 31.32C151.19 31.64 151.19 31.97 151.19 32.28C151.32 41.82 153.6 49.52 155.45 54.42L146.93 57.64C144.84 52.09 142.24 43.33 142.08 32.42C142.08 32.06 142.08 31.7 142.08 31.33C142.08 28.08 142.28 24.48 142.71 20.91C143.14 17.34 143.78 13.82 144.74 10.67C145.39 8.57 146.16 6.63 147.24 4.87C147.86 3.87 148.59 2.92 149.55 2.08C150.06 1.63 150.65 1.22 151.3 0.879999C152 0.519999 152.8 0.229999 153.64 0.0999994C153.97 0.0399994 154.31 0.00999928 154.66 0.00999928C155.34 0.00999928 156.01 0.12 156.61 0.32C157.21 0.52 157.73 0.78 158.18 1.07C159.08 1.66 159.72 2.33 160.27 3C160.63 3.45 160.94 3.91 161.24 4.38C161.63 5 161.98 5.65 162.32 6.32C162.76 7.22 163.18 8.16 163.58 9.14C164.12 10.45 164.64 11.82 165.16 13.22C165.86 15.08 166.54 16.99 167.25 18.79C168.19 21.19 169.16 23.4 170.1 24.99C170.62 25.9 171.14 26.59 171.52 26.98C171.59 27.05 171.65 27.11 171.71 27.16C171.81 27.07 171.94 26.94 172.08 26.78C172.31 26.52 172.57 26.18 172.84 25.76C173.2 25.2 173.59 24.53 173.98 23.76C174.5 22.74 175.03 21.56 175.55 20.29C176.24 18.6 176.93 16.77 177.6 14.94C178.5 12.5 179.39 10.06 180.35 7.88C180.91 6.63 181.48 5.45 182.17 4.35C182.54 3.76 182.94 3.19 183.43 2.64C183.95 2.05 184.56 1.46 185.4 0.95C185.83 0.69 186.32 0.45 186.88 0.28C187.45 0.0999997 188.09 0 188.74 0C189.07 0 189.42 0.0299992 189.76 0.0899992C190.55 0.219999 191.31 0.48 191.98 0.82C192.66 1.16 193.26 1.57 193.78 2.02C194.83 2.93 195.61 3.96 196.27 5.04C196.71 5.76 197.09 6.52 197.44 7.31C197.9 8.36 198.3 9.46 198.65 10.62C199.12 12.16 199.51 13.78 199.84 15.45C200.28 17.69 200.61 20.01 200.85 22.33C201.17 25.43 201.32 28.51 201.32 31.32L201.31 31.36Z" fill="#F5B531"/>
</svg>
