<svg width="548" height="511" viewBox="0 0 548 511" fill="none" xmlns="http://www.w3.org/2000/svg">
<path d="M354.02 349.251C357.875 349.025 361.167 349.29 363.894 350.078C366.621 350.866 368.835 352.089 370.546 353.752C372.252 355.419 373.491 357.455 374.255 359.862C375.019 362.269 375.4 364.916 375.4 367.788C375.4 372.833 374.35 376.937 372.239 380.045C370.129 383.157 366.746 385.068 362.087 385.799V386.004C366.963 386.365 370.312 387.963 372.136 390.813C373.955 393.664 374.867 397.63 374.867 402.67V412.123C374.867 413.172 374.902 414.173 374.976 415.122C375.045 416.071 375.158 416.932 375.306 417.707C375.453 418.486 375.635 419.087 375.853 419.518C376.143 419.953 376.434 420.371 376.729 420.768C377.02 421.168 377.494 421.559 378.149 421.942V423C370.933 422.621 363.716 422.282 356.499 421.986C355.987 421.011 355.604 419.875 355.353 418.573C355.096 417.276 354.919 415.979 354.806 414.683C354.697 413.39 354.623 412.149 354.588 410.961C354.549 409.773 354.532 408.806 354.536 408.058V403.17C354.536 401.133 354.427 399.435 354.21 398.077C353.993 396.72 353.611 395.649 353.064 394.87C352.517 394.091 351.826 393.547 350.988 393.242C350.15 392.938 349.113 392.785 347.875 392.785H342.517C342.512 402.343 342.503 411.901 342.499 421.459C335.716 421.224 328.933 421.029 322.146 420.863C322.164 397.491 322.182 374.117 322.199 350.74C332.816 350.37 343.424 349.878 354.015 349.256L354.02 349.251ZM170.084 347.559C179.884 348.325 189.702 348.977 199.533 349.517H199.538C205.439 349.843 210.029 351.045 213.312 353.134C216.594 355.227 219.056 357.912 220.702 361.216C222.348 364.519 223.351 368.28 223.72 372.52C224.089 376.759 224.275 381.168 224.275 385.756C224.275 390.348 224.098 394.752 223.737 398.987C223.373 403.222 222.373 406.97 220.736 410.252C219.099 413.534 216.637 416.193 213.354 418.234C210.076 420.276 205.478 421.407 199.572 421.629C189.728 421.99 179.884 422.43 170.045 422.935L170.084 347.559ZM286.926 350.152C292.115 350.104 296.496 350.692 300.074 351.95C303.652 353.208 306.536 355.245 308.725 358.087C310.913 360.925 312.48 364.633 313.427 369.203C314.369 373.773 314.843 379.323 314.839 385.83C314.835 392.341 314.352 397.891 313.405 402.47C312.454 407.048 310.882 410.765 308.689 413.62C306.497 416.48 303.614 418.486 300.04 419.666C296.462 420.846 292.085 421.407 286.904 421.368C281.724 421.333 277.342 420.711 273.769 419.492C270.191 418.273 267.312 416.244 265.119 413.394C262.931 410.543 261.359 406.856 260.408 402.33C259.457 397.803 258.979 392.323 258.979 385.895C258.98 379.466 259.448 373.986 260.399 369.464H260.408C261.355 364.942 262.927 361.26 265.115 358.413C267.308 355.571 270.191 353.499 273.773 352.185C277.351 350.87 281.737 350.205 286.926 350.152ZM286.931 362.296C285.398 362.305 284.174 362.666 283.262 363.375C282.345 364.084 281.654 365.342 281.177 367.136C280.699 368.938 280.391 371.358 280.243 374.404C280.096 377.451 280.021 381.286 280.021 385.908C280.021 390.53 280.092 394.365 280.239 397.412L280.234 397.416C280.378 400.467 280.691 402.887 281.164 404.685C281.637 406.482 282.328 407.736 283.244 408.445C284.156 409.155 285.38 409.511 286.913 409.516C288.446 409.52 289.666 409.177 290.582 408.472C291.494 407.771 292.189 406.522 292.662 404.72C293.135 402.922 293.448 400.493 293.596 397.434C293.743 394.378 293.817 390.53 293.821 385.895C293.821 381.259 293.753 377.416 293.609 374.356C293.462 371.301 293.153 368.872 292.68 367.074C292.206 365.277 291.511 364.028 290.6 363.327C289.688 362.626 288.463 362.283 286.931 362.296ZM190.384 408.284C191.734 408.254 193.08 408.223 194.431 408.197V408.201C196.398 408.162 197.966 407.875 199.134 407.349C200.297 406.822 201.192 405.747 201.812 404.128C202.429 402.509 202.829 400.223 203.012 397.272C203.19 394.321 203.281 390.434 203.276 385.607C203.276 380.781 203.177 376.894 202.994 373.938C202.807 370.988 202.408 368.694 201.787 367.062C201.166 365.429 200.271 364.341 199.107 363.793C197.939 363.245 196.376 362.931 194.409 362.849C193.063 362.792 191.717 362.74 190.366 362.679C190.371 377.882 190.375 393.081 190.384 408.284ZM234.541 350.988C239.652 351.136 244.763 351.253 249.878 351.345C249.882 363.401 249.891 375.462 249.896 387.519C244.785 387.505 239.674 387.492 234.567 387.475C234.559 375.314 234.55 363.149 234.541 350.988ZM346.473 363.171C345.161 363.219 343.849 363.262 342.538 363.31C342.538 368.924 342.53 374.54 342.525 380.154C343.876 380.137 345.222 380.115 346.572 380.093C349.486 380.049 351.635 379.223 353.021 377.604C354.406 375.984 355.096 373.878 355.101 371.297C355.101 368.241 354.427 366.091 353.081 364.851C351.735 363.615 349.534 363.058 346.473 363.171ZM31 267.046C40.6269 267.616 50.2669 268.142 59.9111 268.625C62.6468 283.397 65.3826 297.953 68.127 312.308C68.2007 312.308 68.27 312.307 68.3438 312.303C71.049 297.809 73.7547 283.516 76.46 269.409C86.1171 269.844 95.783 270.236 105.453 270.593C105.497 293.548 105.54 316.499 105.583 339.454C99.2521 339.855 92.9213 340.276 86.5947 340.725C86.5687 323.123 86.5382 305.517 86.5078 287.916H86.291C82.7217 305.478 79.1522 323.336 75.5742 341.525C70.7022 341.887 65.8296 342.266 60.9619 342.657C57.3448 324.573 53.7359 306.148 50.1318 287.35H49.915L49.9541 343.566C43.6319 344.102 37.314 344.655 30.9961 345.233C31.0004 319.167 31 293.104 31 267.046ZM488.839 267.08C497.684 266.606 504.076 268.077 508.027 271.663C511.974 275.236 513.946 281.269 513.946 289.635C507.641 289.731 501.332 289.823 495.022 289.905V288.116H495.014C495.014 285.87 494.545 283.968 493.603 282.414C492.66 280.865 491.21 280.125 489.252 280.182C487.076 280.247 485.478 280.969 484.462 282.336C483.442 283.707 482.934 285.209 482.934 286.858C482.934 289.265 483.746 291.158 485.378 292.56C487.011 293.961 489.061 295.18 491.527 296.225C493.994 297.269 496.642 298.34 499.469 299.45C502.296 300.56 504.945 302.018 507.411 303.842C509.878 305.665 511.923 308.068 513.556 311.054C515.188 314.035 516.005 317.922 516.005 322.666C516.005 330.997 513.647 336.89 508.927 340.207C504.207 343.541 497.376 344.733 488.436 343.984C484.219 343.632 480.493 343.006 477.263 342.113C474.028 341.217 471.301 339.902 469.086 338.174C466.871 336.446 465.182 334.287 464.022 331.693C462.863 329.099 462.286 325.952 462.295 322.235V319.745C468.839 319.989 475.379 320.246 481.918 320.516V322.266C481.918 325.421 482.53 327.662 483.763 329.003C484.996 330.348 486.594 331.079 488.557 331.201C490.663 331.327 492.278 330.736 493.407 329.399C494.532 328.068 495.096 326.375 495.101 324.338C495.101 321.879 494.323 319.898 492.765 318.405C491.206 316.912 489.243 315.628 486.885 314.549C484.527 313.474 481.965 312.385 479.208 311.293C476.446 310.2 473.888 308.82 471.53 307.162C469.173 305.504 467.21 303.367 465.655 300.756C464.096 298.14 463.319 294.754 463.328 290.566C463.341 283.324 465.456 277.771 469.672 273.779C473.888 269.797 480.28 267.537 488.839 267.08ZM455.052 340.351C447.631 339.841 440.21 339.367 432.784 338.923C428.299 324.647 423.813 310.649 419.332 296.887H419.115C419.085 310.636 419.059 324.386 419.028 338.131C412.693 337.783 406.357 337.46 400.018 337.155C400.065 315.402 400.113 293.648 400.156 271.895C407.734 271.694 415.307 271.472 422.88 271.232H422.884C427.222 284.878 431.56 298.754 435.897 312.891C435.971 312.891 436.041 312.89 436.115 312.895C436.146 298.858 436.171 284.821 436.197 270.784C442.524 270.562 448.851 270.319 455.173 270.066C455.134 293.496 455.095 316.925 455.052 340.351ZM126.739 271.925C130.304 270.754 134.668 270.262 139.844 270.414C145.015 270.566 149.388 271.315 152.962 272.643C156.536 273.97 159.419 275.99 161.612 278.693C163.805 281.4 165.376 284.852 166.336 289.064C167.291 293.278 167.778 298.357 167.791 304.32C167.804 310.283 167.339 315.371 166.401 319.602C165.463 323.832 163.905 327.319 161.721 330.062C159.541 332.808 156.666 334.835 153.101 336.146C149.531 337.456 145.163 338.248 139.991 338.514C134.82 338.779 130.447 338.436 126.878 337.443C123.309 336.451 120.425 334.614 118.236 331.911C116.048 329.213 114.471 325.63 113.521 321.182C112.565 316.733 112.083 311.314 112.07 304.942C112.057 298.575 112.518 293.138 113.456 288.664V288.66C114.394 284.186 115.948 280.569 118.128 277.81C120.303 275.054 123.174 273.096 126.739 271.925ZM364.953 271.446C370.133 271.346 374.506 271.855 378.08 273C381.649 274.149 384.524 276.034 386.708 278.667C388.888 281.305 390.446 284.747 391.389 288.995C392.327 293.243 392.791 298.401 392.778 304.446C392.765 310.492 392.279 315.637 391.324 319.867C390.369 324.098 388.792 327.51 386.604 330.104C384.411 332.699 381.527 334.488 377.958 335.476C374.384 336.468 370.012 336.86 364.836 336.677C359.66 336.494 355.287 335.798 351.718 334.588C348.148 333.378 345.27 331.462 343.09 328.838C340.906 326.213 339.342 322.862 338.399 318.779C337.457 314.697 336.988 309.774 336.997 304.007C337.006 298.24 337.488 293.322 338.443 289.248L338.435 289.252C339.39 285.178 340.962 281.848 343.159 279.245C345.352 276.647 348.235 274.724 351.817 273.475C355.395 272.225 359.773 271.546 364.953 271.446ZM174.166 272.538C180.948 272.677 187.731 272.8 194.518 272.904L194.596 317.922H194.604C194.609 320.951 195.161 322.966 196.255 323.963C197.349 324.96 198.843 325.435 200.74 325.396C202.633 325.356 204.132 324.821 205.222 323.785C206.316 322.754 206.859 320.734 206.854 317.73C206.833 302.849 206.807 287.963 206.785 273.082C213.572 273.173 220.363 273.248 227.154 273.309C227.167 286.688 227.185 300.068 227.198 313.452C227.203 317.739 226.62 321.321 225.461 324.198C224.297 327.075 222.604 329.391 220.381 331.153C218.158 332.916 215.409 334.148 212.126 334.857C208.848 335.567 205.057 335.981 200.754 336.103C196.525 336.22 192.751 336.015 189.434 335.479C186.116 334.94 183.34 333.83 181.117 332.133C178.89 330.435 177.192 328.124 176.02 325.199C174.847 322.274 174.257 318.579 174.248 314.136C174.222 300.269 174.192 286.405 174.166 272.538ZM308.955 321.399C317.31 321.473 325.66 321.578 334.01 321.704C334.005 326.078 333.997 330.457 333.993 334.836C318.865 334.492 303.731 334.274 288.599 334.191C288.607 313.961 288.616 293.731 288.62 273.496C295.411 273.474 302.207 273.443 308.998 273.396C308.985 289.395 308.968 305.4 308.955 321.399ZM235.931 273.379C251.373 273.492 266.82 273.535 282.268 273.509V286.419C273.613 286.423 264.963 286.419 256.309 286.41C256.309 289.87 256.309 293.326 256.313 296.782C264.416 296.782 272.519 296.778 280.621 296.782V309.182C272.519 309.173 264.42 309.182 256.322 309.199C256.322 317.534 256.331 325.865 256.335 334.2C249.552 334.244 242.77 334.313 235.987 334.409C235.97 314.066 235.948 293.722 235.931 273.379ZM139.861 282.027C138.333 282.001 137.113 282.323 136.201 282.984C135.289 283.65 134.603 284.848 134.134 286.571C133.665 288.299 133.361 290.636 133.222 293.574C133.083 296.516 133.018 300.216 133.026 304.678C133.035 309.139 133.113 312.839 133.27 315.776L133.274 315.78C133.426 318.718 133.739 321.047 134.217 322.762C134.694 324.477 135.385 325.657 136.301 326.301C137.213 326.945 138.433 327.236 139.961 327.18C141.489 327.123 142.71 326.74 143.617 326.035C144.525 325.33 145.216 324.115 145.685 322.392C146.153 320.668 146.458 318.357 146.597 315.458C146.736 312.559 146.801 308.916 146.792 304.529C146.783 300.142 146.701 296.503 146.549 293.604C146.397 290.71 146.084 288.403 145.606 286.692C145.129 284.982 144.433 283.781 143.521 283.094C142.61 282.41 141.39 282.053 139.861 282.027ZM364.923 282.58C363.39 282.597 362.169 282.932 361.253 283.585C360.341 284.238 359.647 285.387 359.169 287.032C358.691 288.677 358.379 290.888 358.227 293.665C358.075 296.446 357.997 299.942 357.988 304.155C357.98 308.368 358.044 311.867 358.188 314.648L358.196 314.641C358.335 317.422 358.643 319.637 359.112 321.291C359.581 322.94 360.272 324.098 361.184 324.769C362.095 325.439 363.316 325.791 364.845 325.83C366.377 325.869 367.598 325.583 368.51 324.956C369.422 324.329 370.116 323.197 370.594 321.552C371.071 319.907 371.384 317.678 371.536 314.871C371.688 312.064 371.766 308.525 371.774 304.264C371.783 300.003 371.718 296.464 371.575 293.652C371.436 290.841 371.128 288.608 370.659 286.954C370.186 285.305 369.495 284.155 368.588 283.516C367.676 282.876 366.456 282.563 364.923 282.58ZM302.702 222.058C307.27 221.709 310.57 222.302 312.606 223.978C314.643 225.649 315.664 228.561 315.664 232.683C312.412 232.922 309.155 233.136 305.898 233.318V232.426C305.898 231.307 305.654 230.376 305.168 229.623C304.682 228.87 303.935 228.53 302.924 228.591C301.799 228.66 300.974 229.044 300.453 229.744C299.928 230.445 299.666 231.207 299.662 232.034C299.662 233.24 300.084 234.175 300.926 234.846C301.768 235.516 302.828 236.082 304.101 236.543C305.373 237.004 306.74 237.474 308.199 237.944C309.658 238.419 311.027 239.064 312.299 239.891C313.571 240.718 314.626 241.836 315.469 243.25C316.311 244.665 316.732 246.55 316.732 248.887C316.732 252.987 315.516 255.981 313.08 257.801C310.644 259.629 307.118 260.49 302.511 260.451C300.335 260.434 298.416 260.26 296.749 259.925C295.082 259.59 293.674 259.024 292.532 258.223C291.39 257.422 290.517 256.382 289.918 255.094C289.319 253.81 289.02 252.221 289.02 250.323V249.053C292.393 249.022 295.768 248.978 299.142 248.926V249.801C299.142 251.381 299.458 252.491 300.097 253.122C300.735 253.753 301.555 254.071 302.571 254.062C303.657 254.054 304.491 253.705 305.073 253C305.655 252.299 305.945 251.437 305.945 250.428C305.945 249.205 305.542 248.247 304.738 247.551C303.931 246.854 302.923 246.271 301.703 245.797C300.487 245.322 299.163 244.847 297.743 244.364C296.319 243.881 294.998 243.246 293.778 242.454C292.558 241.662 291.551 240.613 290.743 239.312C289.936 238.006 289.536 236.291 289.536 234.158C289.536 230.467 290.626 227.625 292.806 225.588C294.981 223.551 298.282 222.393 302.702 222.058ZM229.878 221.501C234.919 222.054 239.965 222.515 245.023 222.872L245.02 222.868C248.054 223.086 250.416 223.725 252.105 224.817C253.795 225.91 255.063 227.303 255.905 229.014C256.752 230.724 257.264 232.665 257.455 234.858C257.642 237.048 257.738 239.325 257.742 241.692C257.742 244.06 257.651 246.336 257.464 248.517C257.277 250.697 256.765 252.626 255.923 254.302C255.08 255.977 253.816 257.317 252.132 258.327C250.447 259.337 248.085 259.855 245.05 259.877C239.991 259.907 234.928 259.947 229.869 259.999C229.869 247.163 229.874 234.332 229.878 221.501ZM285.94 231.363C281.494 231.472 277.048 231.524 272.597 231.516V237.653C276.761 237.653 280.93 237.622 285.094 237.553V244.935C280.929 244.978 276.765 245 272.601 245V252.143C277.212 252.143 281.824 252.134 286.439 252.112C286.439 254.676 286.44 257.244 286.436 259.808C278.337 259.786 270.239 259.782 262.145 259.808C262.14 247.782 262.131 235.751 262.127 223.721C270.062 223.943 278.006 223.929 285.94 223.677V231.363ZM240.32 252.892C241.014 252.9 241.704 252.903 242.398 252.907C243.409 252.916 244.212 252.796 244.815 252.539C245.415 252.287 245.874 251.746 246.191 250.924C246.508 250.101 246.712 248.93 246.808 247.42C246.899 245.905 246.947 243.912 246.942 241.436C246.942 238.959 246.891 236.961 246.8 235.442C246.704 233.924 246.496 232.744 246.179 231.899C245.857 231.055 245.397 230.489 244.802 230.193C244.203 229.902 243.395 229.723 242.388 229.662C241.693 229.619 241.002 229.575 240.308 229.527C240.308 237.314 240.316 245.105 240.32 252.892ZM285.949 223.677C285.946 223.677 285.943 223.677 285.94 223.677V223.673L285.949 223.677ZM373.737 196.457C382.074 196.427 390.412 196.387 398.74 196.348C398.74 201.719 398.745 207.09 398.749 212.456C383.638 212.09 368.518 211.795 353.402 211.56C353.424 188.021 353.446 164.479 353.468 140.94C360.237 140.462 367.003 139.917 373.764 139.312H373.768C373.759 158.359 373.75 177.41 373.737 196.457ZM146.214 136.81C163.04 138.707 179.911 140.209 196.807 141.323C196.811 146.503 196.815 151.678 196.819 156.857C191.722 156.614 186.624 156.34 181.53 156.044C181.543 174.616 181.556 193.193 181.573 211.765C174.799 211.887 168.021 212.017 161.247 212.165C161.247 193.018 161.243 173.871 161.238 154.725C156.223 154.363 151.212 153.976 146.201 153.562H146.205C146.205 147.978 146.21 142.394 146.214 136.81ZM201.4 141.615C212 142.272 222.608 142.777 233.221 143.139C237.085 143.269 240.39 143.809 243.126 144.758C245.861 145.711 248.089 147 249.804 148.632C251.519 150.268 252.761 152.187 253.529 154.398C254.298 156.61 254.681 159.003 254.681 161.58C254.681 166.107 253.625 169.741 251.511 172.492C249.396 175.243 246.004 176.919 241.341 177.502V177.688C246.226 178.115 249.582 179.621 251.406 182.211C253.23 184.801 254.142 188.352 254.146 192.879V201.366C254.146 202.311 254.181 203.203 254.259 204.052C254.333 204.9 254.441 205.671 254.589 206.363C254.732 207.055 254.92 207.586 255.137 207.965C255.428 208.343 255.718 208.705 256.014 209.049C256.305 209.393 256.778 209.723 257.434 210.032V210.977C250.217 210.998 243.004 211.038 235.791 211.09C235.279 210.206 234.897 209.161 234.641 207.96C234.384 206.759 234.202 205.553 234.089 204.348C233.98 203.146 233.903 201.984 233.868 200.874C233.829 199.764 233.812 198.859 233.812 198.163V193.597C233.812 191.695 233.698 190.111 233.481 188.836C233.26 187.565 232.878 186.564 232.331 185.828C231.784 185.093 231.089 184.579 230.251 184.283C229.413 183.992 228.375 183.834 227.133 183.821C225.348 183.804 223.559 183.783 221.774 183.761C221.783 192.91 221.792 202.054 221.801 211.203C215.022 211.273 208.248 211.351 201.47 211.446C201.448 188.169 201.422 164.892 201.4 141.615ZM344.622 141.537C344.6 164.836 344.574 188.135 344.553 211.434C337.779 211.342 331.001 211.26 324.223 211.194C324.244 188.339 324.265 165.489 324.287 142.634C331.07 142.329 337.848 141.963 344.622 141.532V141.537ZM302.624 143.408C308.955 165.784 315.282 188.309 321.6 211.173C314.387 211.108 307.17 211.055 299.957 211.016C299.267 207.072 298.576 203.129 297.886 199.19H281.702C281.007 203.112 280.317 207.033 279.622 210.95C272.518 210.941 265.41 210.95 258.307 210.968C264.529 188.531 270.765 166.198 277.009 143.791C285.55 143.756 294.087 143.631 302.624 143.404V143.408ZM284.112 186.015C287.903 186.006 291.694 185.993 295.489 185.976C293.635 176.448 291.781 166.938 289.923 157.437H289.701C287.838 166.977 285.975 176.5 284.112 186.015ZM221.757 171.674C223.107 171.7 224.453 171.73 225.804 171.756C228.717 171.812 230.872 171.103 232.257 169.632C233.638 168.165 234.332 166.229 234.328 163.817C234.328 160.962 233.65 158.921 232.3 157.681C230.949 156.44 228.744 155.773 225.683 155.678C224.371 155.639 223.056 155.595 221.744 155.552C221.748 160.927 221.752 166.298 221.757 171.674ZM165.116 93.207C166.844 91.7838 169.415 91.2436 172.841 91.5352C174.882 91.7093 176.58 92.0354 177.931 92.5186C179.281 93.0017 180.358 93.6331 181.161 94.4121C181.964 95.1912 182.528 96.11 182.858 97.1807C183.188 98.2514 183.358 99.4569 183.358 100.802C183.358 101.402 183.28 102.025 183.124 102.66C182.968 103.3 182.707 103.888 182.347 104.432C181.986 104.976 181.504 105.45 180.909 105.859C180.31 106.269 179.571 106.542 178.694 106.682V106.77C180.644 107.196 182.012 108.031 182.803 109.271C183.589 110.516 183.983 111.966 183.987 113.624C183.987 117.058 183.081 119.518 181.257 121.028C179.433 122.539 176.71 123.322 173.089 123.344C171.2 123.352 169.553 123.217 168.155 122.921C166.753 122.629 165.598 122.094 164.687 121.307C163.775 120.523 163.097 119.465 162.658 118.138C162.22 116.81 161.998 115.169 161.998 113.22C164.734 113.289 167.469 113.354 170.205 113.415C170.205 114.307 170.262 115.052 170.37 115.648C170.479 116.245 170.631 116.749 170.817 117.167C171.195 117.942 171.855 118.334 172.802 118.343C173.305 118.343 173.714 118.286 174.031 118.155C174.344 118.025 174.587 117.776 174.761 117.415C174.934 117.05 175.052 116.554 175.112 115.923C175.173 115.292 175.207 114.495 175.203 113.528C175.203 112.005 174.943 110.974 174.422 110.43C173.901 109.886 173.093 109.594 171.99 109.555C171.252 109.529 170.514 109.507 169.771 109.48V104.301C170.197 104.323 170.618 104.345 171.043 104.362C171.703 104.397 172.268 104.362 172.741 104.267C173.21 104.171 173.605 103.97 173.918 103.661C174.231 103.352 174.47 102.917 174.626 102.352C174.782 101.79 174.86 101.05 174.86 100.141C174.86 98.8218 174.678 97.9202 174.317 97.4414C173.957 96.9627 173.397 96.6972 172.646 96.6406C171.799 96.5797 171.19 96.85 170.83 97.4463C170.47 98.0427 170.288 99.1786 170.288 100.841C167.648 100.684 165.008 100.523 162.372 100.354C162.468 96.9803 163.379 94.5862 165.107 93.1934L165.116 93.207ZM331.8 92.7061C334.032 92.5711 335.92 92.7326 337.462 93.207C338.999 93.6771 340.241 94.5081 341.184 95.6963C342.126 96.8888 342.799 98.4688 343.207 100.432C343.611 102.399 343.815 104.798 343.811 107.618C343.811 110.443 343.598 112.854 343.186 114.848C342.773 116.841 342.095 118.469 341.148 119.718C340.202 120.971 338.956 121.855 337.414 122.382C335.868 122.908 333.979 123.161 331.747 123.156C329.511 123.148 327.622 122.882 326.081 122.364C324.54 121.846 323.298 120.989 322.355 119.792C321.413 118.595 320.74 117.053 320.332 115.16C319.928 113.271 319.728 110.986 319.732 108.301C319.737 105.615 319.945 103.322 320.357 101.411V101.42C320.77 99.5093 321.452 97.9381 322.398 96.6934C323.345 95.4486 324.591 94.508 326.133 93.8682C327.674 93.2283 329.564 92.841 331.8 92.7061ZM370.75 122.834C367.541 122.821 364.328 122.809 361.119 122.8C359.169 116.28 357.224 109.868 355.278 103.553H355.183C355.178 109.964 355.174 116.371 355.17 122.782C352.43 122.774 349.694 122.765 346.954 122.756L346.993 92.2881C350.262 92.0488 353.531 91.7961 356.795 91.5264C358.675 97.7927 360.559 104.15 362.443 110.612H362.539C362.539 104.084 362.539 97.5594 362.543 91.0352C365.274 90.7958 368.006 90.5473 370.732 90.2861C370.737 101.137 370.741 111.983 370.75 122.834ZM187.688 92.4365C194.334 92.9108 200.989 93.3233 207.645 93.6758C207.645 95.7376 207.653 97.7995 207.657 99.8613C203.927 99.709 200.197 99.5392 196.472 99.3564C196.472 101.05 196.476 102.747 196.48 104.44C199.972 104.571 203.467 104.692 206.963 104.806C206.963 106.79 206.972 108.776 206.972 110.761C203.476 110.691 199.985 110.612 196.489 110.529C196.489 112.501 196.494 114.473 196.498 116.449C200.371 116.493 204.24 116.532 208.113 116.562C208.113 118.625 208.123 120.684 208.127 122.747C201.327 122.764 194.527 122.786 187.727 122.812L187.688 92.4365ZM223.563 94.3994C230.225 94.6562 236.89 94.8524 243.556 94.9873L243.56 100.876C239.825 100.815 236.091 100.745 232.361 100.653C232.361 102.246 232.366 103.84 232.37 105.438C235.865 105.498 239.361 105.555 242.86 105.599C242.86 107.487 242.861 109.376 242.865 111.261C239.37 111.235 235.873 111.2 232.378 111.161C232.378 113.015 232.382 114.869 232.387 116.728C236.26 116.745 240.134 116.762 244.007 116.775C244.007 118.738 244.007 120.702 244.012 122.669C237.212 122.678 230.411 122.69 223.611 122.703C223.594 113.267 223.581 103.835 223.563 94.3994ZM316.928 94.0645C316.91 103.601 316.892 113.142 316.875 122.678C313.948 122.673 311.022 122.668 308.091 122.664C308.108 113.254 308.121 103.84 308.139 94.4258C311.07 94.317 313.997 94.1945 316.928 94.0596V94.0645ZM247.198 95.0518C251.454 95.1257 255.709 95.1735 259.965 95.1953C262.518 95.2084 264.503 95.5917 265.923 96.3447C267.343 97.102 268.406 98.1124 269.114 99.3789C269.822 100.645 270.256 102.103 270.412 103.757C270.568 105.406 270.646 107.131 270.646 108.924C270.646 110.717 270.569 112.441 270.408 114.095C270.252 115.749 269.817 117.207 269.109 118.478C268.402 119.744 267.338 120.758 265.923 121.516C264.507 122.273 262.523 122.651 259.974 122.651C255.723 122.651 251.476 122.66 247.225 122.664C247.216 113.459 247.207 104.257 247.198 95.0518ZM306.476 100.724C304.27 100.785 302.064 100.841 299.862 100.894C299.854 108.149 299.841 115.4 299.832 122.655C296.905 122.655 293.974 122.651 291.047 122.646C291.056 115.452 291.065 108.262 291.073 101.067C288.898 101.107 286.727 101.137 284.552 101.163L284.547 101.167C284.547 99.1302 284.547 97.0978 284.552 95.0654C291.864 94.9479 299.176 94.7557 306.484 94.4902C306.484 96.5707 306.476 98.6475 306.476 100.724ZM282.779 122.647H273.995C273.995 113.494 274.003 104.34 274.008 95.1914C276.939 95.1696 279.87 95.1392 282.801 95.0957L282.779 122.647ZM331.791 97.9033C331.131 97.9381 330.601 98.1115 330.21 98.4336C329.815 98.7557 329.516 99.3005 329.312 100.075C329.103 100.85 328.968 101.885 328.903 103.187C328.838 104.488 328.803 106.12 328.799 108.083C328.799 110.05 328.825 111.683 328.886 112.976L328.912 113.445C328.981 114.521 329.103 115.391 329.281 116.062C329.485 116.823 329.781 117.354 330.176 117.654C330.567 117.955 331.096 118.098 331.756 118.094C332.416 118.089 332.946 117.934 333.337 117.629C333.732 117.324 334.031 116.78 334.235 116.005C334.439 115.23 334.578 114.186 334.644 112.871C334.709 111.557 334.744 109.903 334.748 107.914C334.748 105.925 334.722 104.271 334.661 102.961C334.6 101.651 334.47 100.615 334.266 99.8486C334.062 99.087 333.766 98.5603 333.371 98.2773C332.98 97.9946 332.451 97.8685 331.791 97.9033ZM256.005 117.493H257.75C258.601 117.493 259.279 117.398 259.782 117.206C260.286 117.015 260.673 116.61 260.938 115.996C261.207 115.382 261.376 114.512 261.459 113.385C261.537 112.257 261.576 110.769 261.576 108.928C261.576 107.082 261.537 105.598 261.459 104.467C261.381 103.339 261.207 102.464 260.938 101.851C260.668 101.233 260.282 100.828 259.778 100.637C259.275 100.441 258.597 100.34 257.746 100.336C257.164 100.336 256.578 100.328 255.996 100.323C255.996 106.047 256.001 111.77 256.005 117.493ZM207.649 93.6768C207.648 93.6767 207.646 93.6759 207.645 93.6758V93.6729L207.649 93.6768ZM231.914 87C234.563 87.1045 237.207 87.2 239.855 87.2783H239.86C238.349 89.1237 236.838 90.9736 235.327 92.832C233.499 92.7798 231.671 92.7196 229.843 92.6543C230.533 90.7653 231.224 88.8803 231.914 87ZM356.799 91.5264C356.798 91.5265 356.796 91.5263 356.795 91.5264C356.795 91.5251 356.794 91.5237 356.794 91.5225L356.799 91.5264Z" fill="white"/>
<path d="M188.061 249.396C192.025 251.163 195.99 252.843 199.959 254.428L199.876 236.861C195.929 238.289 191.978 239.794 188.031 241.374L188.009 236.108C184.062 237.592 180.115 239.163 176.167 240.83L176.154 235.237C169.194 237.975 162.229 241.009 155.255 244.456C162.224 248.369 169.211 251.82 176.206 254.932L176.193 249.34C180.154 251.215 184.118 252.991 188.083 254.658L188.061 249.392V249.396Z" fill="#F2B800"/>
<path d="M389.782 244.404C382.808 240.957 375.848 237.927 368.883 235.194L368.87 240.783C364.922 239.12 360.975 237.549 357.028 236.069L357.006 241.335C353.059 239.755 349.112 238.254 345.161 236.826L345.078 254.388C349.043 252.8 353.012 251.124 356.976 249.353L356.954 254.619C360.919 252.952 364.883 251.172 368.844 249.296L368.831 254.889C375.826 251.777 382.813 248.321 389.782 244.404Z" fill="#F2B800"/>
<path d="M472.794 94.1773C476.937 93.7289 481.301 93.3372 485.812 93.0151C485.443 99.0651 485.074 105.111 484.701 111.148C480.51 111.37 476.52 111.653 472.785 111.996C472.659 112.009 472.533 112.018 472.408 112.031C464.639 112.741 457.692 113.746 451.751 115.026C445.659 116.327 440.292 118.081 436.653 119.992C434.395 121.15 432.619 122.429 431.52 123.705C430.947 124.375 430.656 124.871 430.448 125.276C430.413 125.346 430.374 125.415 430.339 125.485C430.309 125.559 430.279 125.628 430.253 125.702C429.927 126.508 429.788 127.2 429.766 128.188C429.731 129.807 430.231 131.896 431.173 134.094C432.167 136.466 433.787 139.247 435.85 142.12C439.45 147.239 445.016 153.58 452.845 161.637C456.107 165.014 459.633 168.566 463.041 172.035C464.344 173.358 465.655 174.694 466.962 176.039C472.746 181.976 479.39 188.988 485.083 196.1C488.465 200.335 491.201 204.2 493.437 207.878C496.507 212.953 498.505 217.449 499.708 221.962C500.446 224.791 500.806 227.438 500.806 230.01C500.806 233.505 500.103 236.939 498.77 239.916C497.879 241.923 496.716 243.786 495.296 245.466C493.898 247.133 492.182 248.678 490.189 250.071C486.351 252.726 481.626 254.68 475.764 256.055C471.921 256.956 467.661 257.588 462.742 257.997C456.011 258.528 448.603 258.593 440.118 258.236C431.025 257.853 420.656 256.961 409.231 255.646C409.839 250.058 410.447 244.46 411.051 238.859C421.833 239.977 431.594 240.691 440.123 240.931C450.006 241.209 458.408 240.861 465.104 239.834C470.519 239.007 475.078 237.649 477.957 235.999C479.347 235.22 480.35 234.432 481.105 233.527C481.179 233.436 481.253 233.348 481.331 233.257C481.531 232.931 481.735 232.6 481.935 232.269C481.987 232.117 482.039 231.964 482.091 231.816C482.321 231.185 482.425 230.572 482.451 229.723C482.451 229.675 482.451 229.627 482.451 229.579C482.451 228.804 482.343 227.925 482.13 226.981C481.9 225.945 481.535 224.809 481.057 223.612C480.076 221.114 478.461 218.141 476.389 215.029C472.772 209.532 467.201 202.733 459.381 194.446C455.924 190.768 452.181 186.942 448.564 183.273C447.457 182.15 446.341 181.023 445.229 179.9C439.445 174.011 432.784 167.247 427.096 160.609C423.609 156.518 420.947 153.049 418.728 149.68C415.628 144.936 413.639 140.84 412.475 136.766C411.741 134.19 411.385 131.757 411.385 129.328V129.237C411.385 125.942 412.132 122.616 413.543 119.6C414.733 117.054 416.414 114.651 418.537 112.445C420.43 110.482 422.723 108.649 425.346 106.995C429.901 104.136 435.168 101.877 441.907 99.8616C445.768 98.7169 449.901 97.7289 454.539 96.8366C460.088 95.7746 466.059 94.9085 472.785 94.1773H472.794Z" fill="#F2B800"/>
<path d="M72.252 94.1816C68.1094 93.7333 63.7454 93.3416 59.2338 93.0151C59.6028 99.0695 59.9719 105.119 60.3454 111.161C64.5357 111.383 68.5263 111.666 72.2606 112.009C72.3866 112.023 72.5125 112.031 72.6384 112.044C80.4068 112.754 87.3545 113.755 93.2947 115.039C99.387 116.34 104.754 118.099 108.393 120.009C110.651 121.167 112.427 122.451 113.526 123.722C114.099 124.392 114.39 124.893 114.598 125.293C114.633 125.363 114.672 125.433 114.707 125.502C114.737 125.576 114.767 125.646 114.793 125.72C115.119 126.525 115.258 127.221 115.28 128.205C115.315 129.824 114.815 131.913 113.873 134.116C112.879 136.488 111.254 139.274 109.196 142.146C105.596 147.265 100.03 153.611 92.2005 161.676C88.9394 165.053 85.4135 168.609 82.0048 172.083C80.7021 173.41 79.3907 174.746 78.0837 176.091C72.2997 182.032 65.6604 189.053 59.9633 196.169C56.5806 200.409 53.845 204.278 51.613 207.956C48.543 213.035 46.5499 217.531 45.3427 222.054C44.6046 224.887 44.2441 227.534 44.2441 230.106C44.2441 233.605 44.9476 237.039 46.285 240.021C47.1752 242.032 48.3389 243.895 49.7589 245.575C51.1571 247.246 52.8723 248.791 54.8654 250.18C58.704 252.83 63.4284 254.789 69.2905 256.164C73.1335 257.065 77.3932 257.696 82.3131 258.101C89.0436 258.632 96.4473 258.693 104.932 258.332C114.025 257.944 124.394 257.048 135.819 255.725C135.211 250.132 134.603 244.534 133.999 238.928C123.218 240.051 113.456 240.769 104.928 241.013C95.0447 241.296 86.6423 240.948 79.9509 239.929C74.536 239.107 69.9766 237.749 67.102 236.095C65.7125 235.316 64.7094 234.528 63.9538 233.623C63.88 233.536 63.8062 233.444 63.728 233.353C63.5283 233.026 63.3242 232.696 63.1245 232.365C63.0723 232.212 63.0202 232.06 62.9681 231.912C62.738 231.281 62.6338 230.667 62.6077 229.819C62.6077 229.771 62.6077 229.723 62.6077 229.675C62.6077 228.896 62.7163 228.021 62.9291 227.072C63.1592 226.036 63.5196 224.9 64.0016 223.703C64.983 221.201 66.594 218.228 68.6696 215.116C72.2867 209.614 77.8579 202.811 85.6784 194.515C89.1348 190.833 92.8779 187.003 96.495 183.334C97.6023 182.211 98.7183 181.084 99.8299 179.956C105.614 174.063 112.275 167.295 117.963 160.653C121.45 156.562 124.112 153.088 126.331 149.72C129.431 144.975 131.42 140.875 132.584 136.801C133.318 134.22 133.674 131.787 133.674 129.359V129.267C133.674 125.972 132.927 122.643 131.516 119.626C130.326 117.076 128.645 114.673 126.522 112.466C124.629 110.503 122.336 108.671 119.713 107.017C115.158 104.158 109.891 101.899 103.152 99.8834C99.2958 98.7387 95.1576 97.7507 90.52 96.854C84.9706 95.792 78.9999 94.9215 72.2737 94.1947L72.252 94.1816Z" fill="#F2B800"/>
</svg>
