<svg width="123" height="213" viewBox="0 0 123 213" fill="none" xmlns="http://www.w3.org/2000/svg">
<path d="M98.3566 0.0154202C100.097 -0.109142 101.806 0.525447 103.046 1.7559C104.286 2.98659 104.937 4.69405 104.831 6.44023C104.385 13.7851 103.938 21.1273 103.485 28.4593C103.295 31.537 100.833 33.9835 97.762 34.1467C92.7803 34.4112 88.0504 34.7457 83.6366 35.152L83.6378 35.1532C83.501 35.1675 83.3739 35.1783 83.3061 35.1841C83.2213 35.1915 83.1959 35.1931 83.1801 35.1948C83.1559 35.1973 83.1305 35.1996 83.1062 35.2019C73.8766 36.0469 65.7138 37.2371 58.8176 38.7267L58.8079 38.729C51.7083 40.2496 45.8014 42.234 42.0742 44.1959C42.0573 44.205 42.0403 44.2143 42.0221 44.2231C39.6596 45.4379 38.2647 46.5585 37.6374 47.2844C37.4497 47.5052 37.3431 47.6553 37.2838 47.7456C37.2269 47.8324 37.1845 47.9087 37.1288 48.0159L37.1276 48.0148C37.1264 48.0197 37.124 48.0264 37.1228 48.0313C37.0465 48.2204 37.0283 48.3042 37.0186 48.3526C37.0065 48.4131 36.9811 48.5632 36.9738 48.9052C36.9569 49.6902 37.239 51.3278 38.1884 53.5503C38.1956 53.5651 38.2017 53.5805 38.2077 53.5953C39.1837 55.9308 40.8839 58.9037 43.2052 62.1459C43.2173 62.162 43.2282 62.1785 43.2391 62.1946C47.0608 67.6419 52.9858 74.5058 61.4768 83.3541L63.2108 85.1503L63.223 85.1645C67.1463 89.2382 71.37 93.5046 75.5271 97.7462C77.1073 99.355 78.7046 100.986 80.2993 102.631L82.9851 105.408C88.9065 111.562 95.4225 118.576 101.289 125.766L102.631 127.428L102.635 127.433C106.593 132.4 109.891 137.022 112.65 141.477L113.195 142.367L113.202 142.379C116.897 148.501 119.487 154.149 121.145 159.904L121.465 161.056L121.473 161.088C122.48 164.957 123 168.688 123 172.39C123 177.414 121.995 182.429 120.011 186.878L120.013 186.879C118.706 189.83 116.996 192.577 114.91 195.054C112.836 197.534 110.353 199.763 107.557 201.721C107.549 201.727 107.54 201.733 107.532 201.738C102.103 205.503 95.6284 208.128 88.0032 209.921H88.002C82.9936 211.098 77.5312 211.902 71.3531 212.417C71.3446 212.418 71.3361 212.418 71.3276 212.419C62.873 213.088 53.6494 213.165 43.2016 212.724C32.0018 212.25 19.2908 211.152 5.36277 209.546C2.05574 209.164 -0.323697 206.177 0.035946 202.858C0.772185 196.074 1.50842 189.28 2.23861 182.483C2.59583 179.159 5.56621 176.75 8.88171 177.095C21.8373 178.443 33.4997 179.295 43.6315 179.58H43.6327C55.4028 179.913 65.1798 179.488 72.7941 178.316H72.7977C79.0363 177.361 83.7154 175.86 86.2668 174.395L86.3152 174.367C87.5539 173.67 88.1195 173.15 88.4307 172.78C88.4827 172.694 88.5348 172.609 88.5856 172.526C88.5881 172.519 88.5905 172.511 88.5929 172.503C88.6111 172.456 88.6172 172.43 88.6256 172.384C88.6353 172.326 88.6535 172.188 88.6631 171.91V171.868C88.6631 171.47 88.6038 170.858 88.4222 170.047C88.421 170.041 88.4197 170.035 88.4185 170.029C88.226 169.162 87.8954 168.101 87.4062 166.873C87.4026 166.863 87.399 166.852 87.3941 166.842C86.4109 164.33 84.6913 161.111 82.3373 157.566C82.3324 157.557 82.3264 157.547 82.3204 157.539C78.2141 151.282 71.7321 143.319 62.3777 133.379L62.3692 133.371C58.2364 128.961 53.7451 124.359 49.3712 119.91C48.0356 118.552 46.6878 117.188 45.3425 115.824C45.3364 115.819 45.3304 115.813 45.3255 115.808C38.3555 108.694 30.1358 100.328 23.0894 92.0837L23.0785 92.0718C18.7483 86.9782 15.3613 82.5621 12.4987 78.2038C12.4939 78.1979 12.4902 78.1919 12.4866 78.186C8.50873 72.083 5.78294 66.5516 4.16031 60.8548L4.15913 60.8501C3.13227 57.2351 2.60793 53.7204 2.60793 50.1559V50.0456C2.60793 45.1427 3.71351 40.228 5.79266 35.7734C7.54122 32.0215 9.97393 28.5613 12.9601 25.4502L12.9649 25.4455C15.641 22.6642 18.81 20.1397 22.3387 17.9086L22.3483 17.9016C28.4502 14.0614 35.3645 11.1212 43.8882 8.56605L43.9003 8.56253C48.7961 7.10687 53.9994 5.86246 59.7754 4.74844L59.7815 4.74722C66.6922 3.42122 74.0873 2.34812 82.3591 1.44643L82.4112 1.44291C87.4922 0.892094 92.8372 0.410475 98.3566 0.0154202ZM37.0174 48.2305C37.015 48.234 37.0138 48.2357 37.0138 48.2364C37.0138 48.2355 37.0162 48.2321 37.0198 48.227C37.0198 48.2253 37.021 48.2231 37.0223 48.221C37.0198 48.2243 37.0186 48.2278 37.0174 48.2305ZM37.1676 47.9093C37.1663 47.9114 37.1664 47.9141 37.1664 47.9163C37.1664 47.9147 37.1676 47.909 37.1712 47.9009C37.17 47.9042 37.1688 47.9068 37.1676 47.9093Z" fill="#F2B800"/>
</svg>
